<?xml version="1.0" encoding="utf-8"?>
<!-- Generator: Adobe Illustrator 21.0.0, SVG Export Plug-In . SVG Version: 6.00 Build 0)  -->
<svg version="1.1" id="Слой_1" xmlns="http://www.w3.org/2000/svg" xmlns:xlink="http://www.w3.org/1999/xlink" x="0px" y="0px"
	 viewBox="0 0 1440 833" style="enable-background:new 0 0 1440 833;" xml:space="preserve">
<style type="text/css">
	.st0{fill:url(#SVGID_1_);}
	.st1{fill:url(#SVGID_2_);}
	.st2{fill:url(#SVGID_3_);}
	.st3{fill:url(#SVGID_4_);}
	.st4{fill:url(#SVGID_5_);}
	.st5{fill:url(#SVGID_6_);}
	.st6{fill:url(#SVGID_7_);}
	.st7{fill:url(#SVGID_8_);}
	.st8{fill:url(#SVGID_9_);}
	.st9{fill:url(#SVGID_10_);}
	.st10{fill:url(#SVGID_11_);}
	.st11{fill:url(#SVGID_12_);}
	.st12{fill:url(#SVGID_13_);}
	.st13{fill:url(#SVGID_14_);}
	.st14{fill:url(#SVGID_15_);}
	.st15{fill:url(#SVGID_16_);}
	.st16{fill:url(#SVGID_17_);}
</style>
<radialGradient id="SVGID_1_" cx="1419.3936" cy="-47.14" r="1.0011" gradientTransform="matrix(6.999 0 0 6.999 -9863.6533 396.8769)" gradientUnits="userSpaceOnUse">
	<stop  offset="0.5642" style="stop-color:#F50000"/>
	<stop  offset="0.6284" style="stop-color:#F10000"/>
	<stop  offset="0.6852" style="stop-color:#E70000"/>
	<stop  offset="0.7393" style="stop-color:#D50000"/>
	<stop  offset="0.7917" style="stop-color:#BB0000"/>
	<stop  offset="0.8429" style="stop-color:#9A0000"/>
	<stop  offset="0.8933" style="stop-color:#720000"/>
	<stop  offset="0.9428" style="stop-color:#420000"/>
	<stop  offset="0.9906" style="stop-color:#0C0000"/>
	<stop  offset="1" style="stop-color:#000000"/>
</radialGradient>
<path class="st0" d="M70.7,73.9c3.9,0,7-3.1,7-7s-3.1-7-7-7s-7,3.1-7,7C63.7,70.8,66.8,73.9,70.7,73.9z"/>
<radialGradient id="SVGID_2_" cx="1419.3983" cy="-47.1415" r="0.9995" gradientTransform="matrix(6.9991 0 0 6.9991 -8553.3799 464.5255)" gradientUnits="userSpaceOnUse">
	<stop  offset="0.5642" style="stop-color:#7000B2"/>
	<stop  offset="0.6383" style="stop-color:#6E00AE"/>
	<stop  offset="0.704" style="stop-color:#6700A4"/>
	<stop  offset="0.7664" style="stop-color:#5C0092"/>
	<stop  offset="0.8269" style="stop-color:#4C0078"/>
	<stop  offset="0.886" style="stop-color:#370057"/>
	<stop  offset="0.9432" style="stop-color:#1E002F"/>
	<stop  offset="0.9994" style="stop-color:#000001"/>
	<stop  offset="1" style="stop-color:#000000"/>
</radialGradient>
<path class="st1" d="M1381.1,141.6c3.9,0,7-3.1,7-7s-3.1-7-7-7s-7,3.1-7,7S1377.3,141.6,1381.1,141.6z"/>
<radialGradient id="SVGID_3_" cx="1419.3958" cy="-47.1404" r="1.0023" gradientTransform="matrix(6.9991 0 0 6.9991 -9748.2393 736.9405)" gradientUnits="userSpaceOnUse">
	<stop  offset="0.5642" style="stop-color:#7000B2"/>
	<stop  offset="0.6383" style="stop-color:#6E00AE"/>
	<stop  offset="0.704" style="stop-color:#6700A4"/>
	<stop  offset="0.7664" style="stop-color:#5C0092"/>
	<stop  offset="0.8269" style="stop-color:#4C0078"/>
	<stop  offset="0.886" style="stop-color:#370057"/>
	<stop  offset="0.9432" style="stop-color:#1E002F"/>
	<stop  offset="0.9994" style="stop-color:#000001"/>
	<stop  offset="1" style="stop-color:#000000"/>
</radialGradient>
<path class="st2" d="M186.2,414c3.9,0,7-3.1,7-7s-3.1-7-7-7s-7,3.1-7,7S182.4,414,186.2,414z"/>
<radialGradient id="SVGID_4_" cx="1424.2609" cy="-45.1429" r="1.0003" gradientTransform="matrix(6.9993 0 0 6.9993 -8964.0654 855.2312)" gradientUnits="userSpaceOnUse">
	<stop  offset="0.5642" style="stop-color:#7000B2"/>
	<stop  offset="0.6383" style="stop-color:#6E00AE"/>
	<stop  offset="0.704" style="stop-color:#6700A4"/>
	<stop  offset="0.7664" style="stop-color:#5C0092"/>
	<stop  offset="0.8269" style="stop-color:#4C0078"/>
	<stop  offset="0.886" style="stop-color:#370057"/>
	<stop  offset="0.9432" style="stop-color:#1E002F"/>
	<stop  offset="0.9994" style="stop-color:#000001"/>
	<stop  offset="1" style="stop-color:#000000"/>
</radialGradient>
<path class="st3" d="M1010,544.4c5.6-7.7-2.7-15.9-10.4-10.4C994.1,541.7,1002.3,549.9,1010,544.4z"/>
<radialGradient id="SVGID_5_" cx="1405.2531" cy="-48.1303" r="1.0001" gradientTransform="matrix(6.9991 0 0 6.5617 -8650.4893 823.4528)" gradientUnits="userSpaceOnUse">
	<stop  offset="0.5642" style="stop-color:#F50000"/>
	<stop  offset="0.6284" style="stop-color:#F10000"/>
	<stop  offset="0.6852" style="stop-color:#E70000"/>
	<stop  offset="0.7393" style="stop-color:#D50000"/>
	<stop  offset="0.7917" style="stop-color:#BB0000"/>
	<stop  offset="0.8429" style="stop-color:#9A0000"/>
	<stop  offset="0.8933" style="stop-color:#720000"/>
	<stop  offset="0.9428" style="stop-color:#420000"/>
	<stop  offset="0.9906" style="stop-color:#0C0000"/>
	<stop  offset="1" style="stop-color:#000000"/>
</radialGradient>
<path class="st4" d="M1185,514.3c3.9,0,7-2.9,7-6.6s-3.1-6.6-7-6.6s-7,2.9-7,6.6C1178,511.3,1181.1,514.3,1185,514.3z"/>
<radialGradient id="SVGID_6_" cx="1465.9276" cy="-5.6264" r="1.0011" gradientTransform="matrix(6.9991 0 0 6.9991 -9562.9746 804.6973)" gradientUnits="userSpaceOnUse">
	<stop  offset="0.5642" style="stop-color:#F50000"/>
	<stop  offset="0.6284" style="stop-color:#F10000"/>
	<stop  offset="0.6852" style="stop-color:#E70000"/>
	<stop  offset="0.7393" style="stop-color:#D50000"/>
	<stop  offset="0.7917" style="stop-color:#BB0000"/>
	<stop  offset="0.8429" style="stop-color:#9A0000"/>
	<stop  offset="0.8933" style="stop-color:#720000"/>
	<stop  offset="0.9428" style="stop-color:#420000"/>
	<stop  offset="0.9906" style="stop-color:#0C0000"/>
	<stop  offset="1" style="stop-color:#000000"/>
</radialGradient>
<path class="st5" d="M697.2,772.4c3.9,0,7-3.1,7-7s-3.1-7-7-7s-7,3.1-7,7S693.3,772.4,697.2,772.4z"/>
<radialGradient id="SVGID_7_" cx="1486.6445" cy="-8.5639" r="1.0007" gradientTransform="matrix(6.9991 0 0 6.9991 -9562.9746 804.6973)" gradientUnits="userSpaceOnUse">
	<stop  offset="0.5642" style="stop-color:#F50000"/>
	<stop  offset="0.6284" style="stop-color:#F10000"/>
	<stop  offset="0.6852" style="stop-color:#E70000"/>
	<stop  offset="0.7393" style="stop-color:#D50000"/>
	<stop  offset="0.7917" style="stop-color:#BB0000"/>
	<stop  offset="0.8429" style="stop-color:#9A0000"/>
	<stop  offset="0.8933" style="stop-color:#720000"/>
	<stop  offset="0.9428" style="stop-color:#420000"/>
	<stop  offset="0.9906" style="stop-color:#0C0000"/>
	<stop  offset="1" style="stop-color:#000000"/>
</radialGradient>
<path class="st6" d="M842.2,751.8c3.9,0,7-3.1,7-7s-3.1-7-7-7s-7,3.1-7,7S838.3,751.8,842.2,751.8z"/>
<radialGradient id="SVGID_8_" cx="1426.6129" cy="-34.298" r="1.0016" gradientTransform="matrix(6.9991 0 0 -7.9912 -9562.9746 415.118)" gradientUnits="userSpaceOnUse">
	<stop  offset="0.5642" style="stop-color:#F50000"/>
	<stop  offset="0.6284" style="stop-color:#F10000"/>
	<stop  offset="0.6852" style="stop-color:#E70000"/>
	<stop  offset="0.7393" style="stop-color:#D50000"/>
	<stop  offset="0.7917" style="stop-color:#BB0000"/>
	<stop  offset="0.8429" style="stop-color:#9A0000"/>
	<stop  offset="0.8933" style="stop-color:#720000"/>
	<stop  offset="0.9428" style="stop-color:#420000"/>
	<stop  offset="0.9906" style="stop-color:#0C0000"/>
	<stop  offset="1" style="stop-color:#000000"/>
</radialGradient>
<path class="st7" d="M416.8,683.3c7.7-6.3,15.9,3.1,10.4,11.8C419.5,701.4,411.3,692,416.8,683.3z"/>
<radialGradient id="SVGID_9_" cx="1419.3998" cy="-47.1411" r="0.9995" gradientTransform="matrix(6.9991 0 0 6.9991 -9024.9219 339.0719)" gradientUnits="userSpaceOnUse">
	<stop  offset="0.5642" style="stop-color:#7000B2"/>
	<stop  offset="0.6383" style="stop-color:#6E00AE"/>
	<stop  offset="0.704" style="stop-color:#6700A4"/>
	<stop  offset="0.7664" style="stop-color:#5C0092"/>
	<stop  offset="0.8269" style="stop-color:#4C0078"/>
	<stop  offset="0.886" style="stop-color:#370057"/>
	<stop  offset="0.9432" style="stop-color:#1E002F"/>
	<stop  offset="0.9994" style="stop-color:#000001"/>
	<stop  offset="1" style="stop-color:#000000"/>
</radialGradient>
<path class="st8" d="M909.6,16.2c3.9,0,7-3.1,7-7s-3.1-7-7-7s-7,3.1-7,7C902.6,13,905.7,16.2,909.6,16.2z"/>
<radialGradient id="SVGID_10_" cx="1419.3983" cy="-47.1427" r="0.999" gradientTransform="matrix(6.9991 0 0 6.9991 -9160.8115 398.6563)" gradientUnits="userSpaceOnUse">
	<stop  offset="0.5642" style="stop-color:#7000B2"/>
	<stop  offset="0.6383" style="stop-color:#6E00AE"/>
	<stop  offset="0.704" style="stop-color:#6700A4"/>
	<stop  offset="0.7664" style="stop-color:#5C0092"/>
	<stop  offset="0.8269" style="stop-color:#4C0078"/>
	<stop  offset="0.886" style="stop-color:#370057"/>
	<stop  offset="0.9432" style="stop-color:#1E002F"/>
	<stop  offset="0.9994" style="stop-color:#000001"/>
	<stop  offset="1" style="stop-color:#000000"/>
</radialGradient>
<path class="st9" d="M773.7,75.7c3.9,0,7-3.1,7-7s-3.1-7-7-7s-7,3.1-7,7S769.8,75.7,773.7,75.7z"/>
<radialGradient id="SVGID_11_" cx="1419.3979" cy="-47.1391" r="1.0006" gradientTransform="matrix(6.9991 0 0 6.9991 -9381.0088 409.9713)" gradientUnits="userSpaceOnUse">
	<stop  offset="0.5642" style="stop-color:#F50000"/>
	<stop  offset="0.6284" style="stop-color:#F10000"/>
	<stop  offset="0.6852" style="stop-color:#E70000"/>
	<stop  offset="0.7393" style="stop-color:#D50000"/>
	<stop  offset="0.7917" style="stop-color:#BB0000"/>
	<stop  offset="0.8429" style="stop-color:#9A0000"/>
	<stop  offset="0.8933" style="stop-color:#720000"/>
	<stop  offset="0.9428" style="stop-color:#420000"/>
	<stop  offset="0.9906" style="stop-color:#0C0000"/>
	<stop  offset="1" style="stop-color:#000000"/>
</radialGradient>
<path class="st10" d="M553.5,87.1c3.9,0,7-3.1,7-7s-3.1-7-7-7s-7,3.1-7,7C546.5,83.9,549.6,87.1,553.5,87.1z"/>
<radialGradient id="SVGID_12_" cx="1419.3982" cy="-47.1389" r="1.0002" gradientTransform="matrix(6.9991 0 0 6.9991 -9749.21 824.9874)" gradientUnits="userSpaceOnUse">
	<stop  offset="0.5642" style="stop-color:#7000B2"/>
	<stop  offset="0.6383" style="stop-color:#6E00AE"/>
	<stop  offset="0.704" style="stop-color:#6700A4"/>
	<stop  offset="0.7664" style="stop-color:#5C0092"/>
	<stop  offset="0.8269" style="stop-color:#4C0078"/>
	<stop  offset="0.886" style="stop-color:#370057"/>
	<stop  offset="0.9432" style="stop-color:#1E002F"/>
	<stop  offset="0.9994" style="stop-color:#000001"/>
	<stop  offset="1" style="stop-color:#000000"/>
</radialGradient>
<path class="st11" d="M185.3,502.1c3.9,0,7-3.1,7-7s-3.1-7-7-7s-7,3.1-7,7S181.4,502.1,185.3,502.1z"/>
<radialGradient id="SVGID_13_" cx="1424.6896" cy="-5.9961" r="1.0002" gradientTransform="matrix(6.9993 0 0 6.9993 -8964.0654 855.2312)" gradientUnits="userSpaceOnUse">
	<stop  offset="0.5642" style="stop-color:#7000B2"/>
	<stop  offset="0.6383" style="stop-color:#6E00AE"/>
	<stop  offset="0.704" style="stop-color:#6700A4"/>
	<stop  offset="0.7664" style="stop-color:#5C0092"/>
	<stop  offset="0.8269" style="stop-color:#4C0078"/>
	<stop  offset="0.886" style="stop-color:#370057"/>
	<stop  offset="0.9432" style="stop-color:#1E002F"/>
	<stop  offset="0.9994" style="stop-color:#000001"/>
	<stop  offset="1" style="stop-color:#000000"/>
</radialGradient>
<path class="st12" d="M1013,818.4c5.6-7.7-2.7-15.9-10.4-10.4C997.1,815.7,1005.3,823.9,1013,818.4z"/>
<radialGradient id="SVGID_14_" cx="1437.3467" cy="-17.7687" r="1.0008" gradientTransform="matrix(6.9993 0 0 6.9993 -8964.0654 855.2312)" gradientUnits="userSpaceOnUse">
	<stop  offset="0.5642" style="stop-color:#7000B2"/>
	<stop  offset="0.6383" style="stop-color:#6E00AE"/>
	<stop  offset="0.704" style="stop-color:#6700A4"/>
	<stop  offset="0.7664" style="stop-color:#5C0092"/>
	<stop  offset="0.8269" style="stop-color:#4C0078"/>
	<stop  offset="0.886" style="stop-color:#370057"/>
	<stop  offset="0.9432" style="stop-color:#1E002F"/>
	<stop  offset="0.9994" style="stop-color:#000001"/>
	<stop  offset="1" style="stop-color:#000000"/>
</radialGradient>
<path class="st13" d="M1101.6,736c5.6-7.7-2.7-15.9-10.4-10.4C1085.7,733.3,1093.9,741.5,1101.6,736z"/>
<radialGradient id="SVGID_15_" cx="1320.6791" cy="-6.4724" r="0.9993" gradientTransform="matrix(6.9993 0 0 6.9993 -8964.0654 855.2312)" gradientUnits="userSpaceOnUse">
	<stop  offset="0.5642" style="stop-color:#7000B2"/>
	<stop  offset="0.6383" style="stop-color:#6E00AE"/>
	<stop  offset="0.704" style="stop-color:#6700A4"/>
	<stop  offset="0.7664" style="stop-color:#5C0092"/>
	<stop  offset="0.8269" style="stop-color:#4C0078"/>
	<stop  offset="0.886" style="stop-color:#370057"/>
	<stop  offset="0.9432" style="stop-color:#1E002F"/>
	<stop  offset="0.9994" style="stop-color:#000001"/>
	<stop  offset="1" style="stop-color:#000000"/>
</radialGradient>
<path class="st14" d="M285,815c5.6-7.7-2.7-15.9-10.4-10.4C269.1,812.4,277.3,820.6,285,815z"/>
<radialGradient id="SVGID_16_" cx="1481.3326" cy="-37.0838" r="0.9997" gradientTransform="matrix(15.581 0 0 15.581 -23018.2441 1290.5579)" gradientUnits="userSpaceOnUse">
	<stop  offset="0.5642" style="stop-color:#6E008B"/>
	<stop  offset="0.6471" style="stop-color:#6B0087"/>
	<stop  offset="0.7204" style="stop-color:#63007D"/>
	<stop  offset="0.7902" style="stop-color:#54006B"/>
	<stop  offset="0.8578" style="stop-color:#400051"/>
	<stop  offset="0.9239" style="stop-color:#260030"/>
	<stop  offset="0.9879" style="stop-color:#070008"/>
	<stop  offset="1" style="stop-color:#000000"/>
</radialGradient>
<path class="st15" d="M78,712.8c0-8.6-7-15.6-15.6-15.6s-15.6,7-15.6,15.6s7,15.6,15.6,15.6S78,721.4,78,712.8z"/>
<radialGradient id="SVGID_17_" cx="1388.1617" cy="-83.3388" r="1.0004" gradientTransform="matrix(6.9991 0 0 6.5576 -8701.0293 889.8089)" gradientUnits="userSpaceOnUse">
	<stop  offset="0.5642" style="stop-color:#F50000"/>
	<stop  offset="0.6284" style="stop-color:#F10000"/>
	<stop  offset="0.6852" style="stop-color:#E70000"/>
	<stop  offset="0.7393" style="stop-color:#D50000"/>
	<stop  offset="0.7917" style="stop-color:#BB0000"/>
	<stop  offset="0.8429" style="stop-color:#9A0000"/>
	<stop  offset="0.8933" style="stop-color:#720000"/>
	<stop  offset="0.9428" style="stop-color:#420000"/>
	<stop  offset="0.9906" style="stop-color:#0C0000"/>
	<stop  offset="1" style="stop-color:#000000"/>
</radialGradient>
<path class="st16" d="M1009.7,348.2c6.2,4.2,12.7,0,12.1-5.5c-0.3-3-3-5.5-6.2-5.8C1009.7,336.2,1005.2,342.4,1009.7,348.2z"/>
</svg>
