<svg width="130" height="65" viewBox="0 0 130 65" fill="none" xmlns="http://www.w3.org/2000/svg">
<g clip-path="url(#clip0)">
<g filter="url(#filter0_d)">
<rect width="130" height="65" rx="10" fill="#516EA9"/>
</g>
<path opacity="0.8" d="M31.9678 47H30.8203V41.5996H31.9678V47ZM30.752 40.1689C30.752 39.9639 30.8073 39.806 30.918 39.6953C31.0319 39.5846 31.193 39.5293 31.4014 39.5293C31.6032 39.5293 31.7594 39.5846 31.8701 39.6953C31.984 39.806 32.041 39.9639 32.041 40.1689C32.041 40.3643 31.984 40.5189 31.8701 40.6328C31.7594 40.7435 31.6032 40.7988 31.4014 40.7988C31.193 40.7988 31.0319 40.7435 30.918 40.6328C30.8073 40.5189 30.752 40.3643 30.752 40.1689ZM38.8643 47H37.7119V43.6797C37.7119 43.263 37.6273 42.9521 37.458 42.7471C37.292 42.542 37.0267 42.4395 36.6621 42.4395C36.1771 42.4395 35.8223 42.5827 35.5977 42.8691C35.373 43.1556 35.2607 43.6357 35.2607 44.3096V47H34.1133V41.5996H35.0117L35.1729 42.3076H35.2314C35.3942 42.0505 35.6253 41.8519 35.9248 41.7119C36.2243 41.5719 36.5563 41.502 36.9209 41.502C38.2165 41.502 38.8643 42.1611 38.8643 43.4795V47ZM43.1387 47.0977C42.3216 47.0977 41.6999 46.86 41.2734 46.3848C40.8503 45.9062 40.6387 45.221 40.6387 44.3291C40.6387 43.4209 40.86 42.7227 41.3027 42.2344C41.7487 41.7461 42.3916 41.502 43.2314 41.502C43.8011 41.502 44.3138 41.6077 44.7695 41.8193L44.4229 42.7422C43.9378 42.5534 43.5374 42.459 43.2217 42.459C42.2874 42.459 41.8203 43.0791 41.8203 44.3193C41.8203 44.9248 41.9359 45.3805 42.167 45.6865C42.4014 45.9893 42.7432 46.1406 43.1924 46.1406C43.7035 46.1406 44.1868 46.0137 44.6426 45.7598V46.7607C44.4375 46.8812 44.2178 46.9674 43.9834 47.0195C43.7523 47.0716 43.4707 47.0977 43.1387 47.0977ZM49.1514 41.502C49.3825 41.502 49.5729 41.5182 49.7227 41.5508L49.6104 42.6201C49.4476 42.5811 49.2783 42.5615 49.1025 42.5615C48.6436 42.5615 48.2708 42.7113 47.9844 43.0107C47.7012 43.3102 47.5596 43.6992 47.5596 44.1777V47H46.4121V41.5996H47.3105L47.4619 42.5518H47.5205C47.6995 42.2295 47.9323 41.974 48.2188 41.7852C48.5085 41.5964 48.8193 41.502 49.1514 41.502ZM53.5869 47.0977C52.7471 47.0977 52.0895 46.8535 51.6143 46.3652C51.1423 45.8737 50.9062 45.1982 50.9062 44.3389C50.9062 43.4567 51.126 42.7633 51.5654 42.2588C52.0049 41.7542 52.6087 41.502 53.377 41.502C54.0898 41.502 54.653 41.7184 55.0664 42.1514C55.4798 42.5843 55.6865 43.18 55.6865 43.9385V44.5586H52.0879C52.1042 45.0827 52.2458 45.4863 52.5127 45.7695C52.7796 46.0495 53.1556 46.1895 53.6406 46.1895C53.9596 46.1895 54.2559 46.1602 54.5293 46.1016C54.806 46.0397 55.1022 45.9388 55.418 45.7988V46.7314C55.138 46.8649 54.8548 46.9593 54.5684 47.0146C54.2819 47.07 53.9548 47.0977 53.5869 47.0977ZM53.377 42.3711C53.0124 42.3711 52.7194 42.4867 52.498 42.7178C52.2799 42.9489 52.1497 43.2858 52.1074 43.7285H54.5586C54.5521 43.2826 54.4447 42.9456 54.2363 42.7178C54.028 42.4867 53.7415 42.3711 53.377 42.3711ZM60.8691 47L60.6396 46.248H60.6006C60.3402 46.5768 60.0781 46.8014 59.8145 46.9219C59.5508 47.0391 59.2122 47.0977 58.7988 47.0977C58.2682 47.0977 57.8532 46.9544 57.5537 46.668C57.2575 46.3815 57.1094 45.9762 57.1094 45.4521C57.1094 44.8955 57.3161 44.4756 57.7295 44.1924C58.1429 43.9092 58.7728 43.7546 59.6191 43.7285L60.5518 43.6992V43.4111C60.5518 43.0661 60.4704 42.8089 60.3076 42.6396C60.1481 42.4671 59.8991 42.3809 59.5605 42.3809C59.2839 42.3809 59.0186 42.4215 58.7646 42.5029C58.5107 42.5843 58.2666 42.6803 58.0322 42.791L57.6611 41.9707C57.9541 41.8177 58.2747 41.7021 58.623 41.624C58.9714 41.5426 59.3001 41.502 59.6094 41.502C60.2962 41.502 60.8138 41.6517 61.1621 41.9512C61.5137 42.2507 61.6895 42.721 61.6895 43.3623V47H60.8691ZM59.1602 46.2188C59.5768 46.2188 59.9105 46.1032 60.1611 45.8721C60.415 45.6377 60.542 45.3105 60.542 44.8906V44.4219L59.8486 44.4512C59.3083 44.4707 58.9144 44.5618 58.667 44.7246C58.4229 44.8841 58.3008 45.1299 58.3008 45.4619C58.3008 45.7028 58.3724 45.89 58.5156 46.0234C58.6589 46.1536 58.8737 46.2188 59.1602 46.2188ZM67.4189 45.4619C67.4189 45.9893 67.2269 46.3945 66.8428 46.6777C66.4587 46.9577 65.9085 47.0977 65.1924 47.0977C64.473 47.0977 63.8952 46.9886 63.459 46.7705V45.7793C64.0938 46.0723 64.6846 46.2188 65.2314 46.2188C65.9378 46.2188 66.291 46.0055 66.291 45.5791C66.291 45.4424 66.252 45.3285 66.1738 45.2373C66.0957 45.1462 65.9671 45.0518 65.7881 44.9541C65.609 44.8564 65.36 44.7458 65.041 44.6221C64.4193 44.3812 63.9977 44.1403 63.7764 43.8994C63.5583 43.6585 63.4492 43.346 63.4492 42.9619C63.4492 42.4997 63.6348 42.1416 64.0059 41.8877C64.3802 41.6305 64.888 41.502 65.5293 41.502C66.1641 41.502 66.7646 41.6305 67.3311 41.8877L66.96 42.752C66.3773 42.5111 65.8874 42.3906 65.4902 42.3906C64.8848 42.3906 64.582 42.5632 64.582 42.9082C64.582 43.0775 64.6602 43.2207 64.8164 43.3379C64.9759 43.4551 65.321 43.6162 65.8516 43.8213C66.2975 43.9938 66.6214 44.1517 66.8232 44.2949C67.0251 44.4382 67.1748 44.6042 67.2725 44.793C67.3701 44.9785 67.4189 45.2015 67.4189 45.4619ZM71.5225 47.0977C70.6826 47.0977 70.0251 46.8535 69.5498 46.3652C69.0778 45.8737 68.8418 45.1982 68.8418 44.3389C68.8418 43.4567 69.0615 42.7633 69.501 42.2588C69.9404 41.7542 70.5443 41.502 71.3125 41.502C72.0254 41.502 72.5885 41.7184 73.002 42.1514C73.4154 42.5843 73.6221 43.18 73.6221 43.9385V44.5586H70.0234C70.0397 45.0827 70.1813 45.4863 70.4482 45.7695C70.7152 46.0495 71.0911 46.1895 71.5762 46.1895C71.8952 46.1895 72.1914 46.1602 72.4648 46.1016C72.7415 46.0397 73.0378 45.9388 73.3535 45.7988V46.7314C73.0736 46.8649 72.7904 46.9593 72.5039 47.0146C72.2174 47.07 71.8903 47.0977 71.5225 47.0977ZM71.3125 42.3711C70.9479 42.3711 70.6549 42.4867 70.4336 42.7178C70.2155 42.9489 70.0853 43.2858 70.043 43.7285H72.4941C72.4876 43.2826 72.3802 42.9456 72.1719 42.7178C71.9635 42.4867 71.6771 42.3711 71.3125 42.3711ZM81.5117 47H80.3643V42.3906C80.3643 41.8405 80.3773 41.4043 80.4033 41.082C80.3285 41.1602 80.2357 41.2464 80.125 41.3408C80.0176 41.4352 79.653 41.7347 79.0312 42.2393L78.4551 41.5117L80.5547 39.8613H81.5117V47ZM89.1943 47H84.3555V46.1309L86.1963 44.2803C86.7399 43.7236 87.0996 43.3298 87.2754 43.0986C87.4544 42.8643 87.5846 42.6445 87.666 42.4395C87.7474 42.2344 87.7881 42.0146 87.7881 41.7803C87.7881 41.458 87.6904 41.2041 87.4951 41.0186C87.3031 40.833 87.0361 40.7402 86.6943 40.7402C86.4209 40.7402 86.1556 40.7907 85.8984 40.8916C85.6445 40.9925 85.3499 41.1748 85.0146 41.4385L84.3945 40.6816C84.7917 40.3464 85.1774 40.1087 85.5518 39.9688C85.9261 39.8288 86.3249 39.7588 86.748 39.7588C87.4121 39.7588 87.9443 39.9329 88.3447 40.2812C88.7451 40.6263 88.9453 41.0918 88.9453 41.6777C88.9453 42 88.8867 42.306 88.7695 42.5957C88.6556 42.8854 88.4782 43.1849 88.2373 43.4941C87.9997 43.8001 87.6025 44.2152 87.0459 44.7393L85.8057 45.9404V45.9893H89.1943V47ZM91.4912 42C91.4912 42.485 91.5384 42.8464 91.6328 43.084C91.7272 43.3216 91.8818 43.4404 92.0967 43.4404C92.5264 43.4404 92.7412 42.9603 92.7412 42C92.7412 41.0397 92.5264 40.5596 92.0967 40.5596C91.8818 40.5596 91.7272 40.6784 91.6328 40.916C91.5384 41.1536 91.4912 41.515 91.4912 42ZM93.6885 41.9902C93.6885 42.7389 93.5534 43.3021 93.2832 43.6797C93.0163 44.054 92.6208 44.2412 92.0967 44.2412C91.6019 44.2412 91.2178 44.0475 90.9443 43.6602C90.6742 43.2695 90.5391 42.7129 90.5391 41.9902C90.5391 40.5026 91.0583 39.7588 92.0967 39.7588C92.6077 39.7588 93 39.9525 93.2734 40.3398C93.5501 40.724 93.6885 41.2741 93.6885 41.9902ZM96.1396 44.8516C96.1396 45.3366 96.1868 45.6995 96.2812 45.9404C96.3789 46.1813 96.5352 46.3018 96.75 46.3018C97.1764 46.3018 97.3896 45.8184 97.3896 44.8516C97.3896 43.8978 97.1764 43.4209 96.75 43.4209C96.5352 43.4209 96.3789 43.5381 96.2812 43.7725C96.1868 44.0068 96.1396 44.3665 96.1396 44.8516ZM98.3369 44.8516C98.3369 45.6003 98.2018 46.1618 97.9316 46.5361C97.6615 46.9105 97.2676 47.0977 96.75 47.0977C96.2552 47.0977 95.8711 46.9056 95.5977 46.5215C95.3242 46.1341 95.1875 45.5775 95.1875 44.8516C95.1875 43.3639 95.7083 42.6201 96.75 42.6201C97.2513 42.6201 97.6403 42.8122 97.917 43.1963C98.1969 43.5804 98.3369 44.1322 98.3369 44.8516ZM96.8867 39.8613L92.9268 47H91.9795L95.9395 39.8613H96.8867Z" fill="white"/>
<path d="M35.6 24.2C36.336 24.2 36.992 24.3387 37.568 24.616C38.1547 24.8933 38.6133 25.2933 38.944 25.816C39.2747 26.328 39.44 26.92 39.44 27.592C39.44 28.296 39.264 28.9147 38.912 29.448C38.5707 29.9813 38.096 30.3973 37.488 30.696C36.8907 30.984 36.2187 31.128 35.472 31.128C33.968 31.128 32.8053 30.6427 31.984 29.672C31.1733 28.7013 30.768 27.3253 30.768 25.544C30.768 24.296 30.9867 23.2347 31.424 22.36C31.872 21.4747 32.4907 20.808 33.28 20.36C34.08 19.9013 35.008 19.672 36.064 19.672C36.608 19.672 37.12 19.7307 37.6 19.848C38.08 19.9547 38.496 20.1147 38.848 20.328L38.24 21.576C37.7067 21.224 36.992 21.048 36.096 21.048C34.9333 21.048 34.0213 21.4107 33.36 22.136C32.6987 22.8507 32.368 23.896 32.368 25.272C32.368 25.4427 32.3733 25.576 32.384 25.672C32.704 25.192 33.1413 24.8293 33.696 24.584C34.2613 24.328 34.896 24.2 35.6 24.2ZM35.408 29.832C36.144 29.832 36.7413 29.6347 37.2 29.24C37.6587 28.8453 37.888 28.3173 37.888 27.656C37.888 26.9947 37.6533 26.472 37.184 26.088C36.7253 25.6933 36.1067 25.496 35.328 25.496C34.8267 25.496 34.3787 25.592 33.984 25.784C33.6 25.976 33.296 26.2373 33.072 26.568C32.8587 26.8987 32.752 27.2667 32.752 27.672C32.752 28.0667 32.8533 28.4293 33.056 28.76C33.2693 29.08 33.5733 29.3413 33.968 29.544C34.3733 29.736 34.8533 29.832 35.408 29.832ZM56.2359 22.44C57.3025 22.44 58.1452 22.7493 58.7639 23.368C59.3932 23.9867 59.7079 24.904 59.7079 26.12V31H58.1719V26.296C58.1719 25.4747 57.9799 24.856 57.5959 24.44C57.2225 24.024 56.6839 23.816 55.9799 23.816C55.2012 23.816 54.5825 24.0613 54.1239 24.552C53.6652 25.032 53.4359 25.7253 53.4359 26.632V31H51.8999V26.296C51.8999 25.4747 51.7079 24.856 51.3239 24.44C50.9505 24.024 50.4119 23.816 49.7079 23.816C48.9292 23.816 48.3105 24.0613 47.8519 24.552C47.3932 25.032 47.1639 25.7253 47.1639 26.632V31H45.6279V22.52H47.0999V23.784C47.4092 23.3467 47.8145 23.016 48.3159 22.792C48.8172 22.5573 49.3879 22.44 50.0279 22.44C50.6892 22.44 51.2759 22.5733 51.7879 22.84C52.2999 23.1067 52.6945 23.496 52.9719 24.008C53.2919 23.5173 53.7345 23.1333 54.2999 22.856C54.8759 22.5787 55.5212 22.44 56.2359 22.44ZM66.213 31.096C65.3703 31.096 64.613 30.9093 63.941 30.536C63.269 30.1627 62.741 29.6507 62.357 29C61.9837 28.3387 61.797 27.592 61.797 26.76C61.797 25.928 61.9837 25.1867 62.357 24.536C62.741 23.8747 63.269 23.3627 63.941 23C64.613 22.6267 65.3703 22.44 66.213 22.44C67.0557 22.44 67.8077 22.6267 68.469 23C69.141 23.3627 69.6637 23.8747 70.037 24.536C70.421 25.1867 70.613 25.928 70.613 26.76C70.613 27.592 70.421 28.3387 70.037 29C69.6637 29.6507 69.141 30.1627 68.469 30.536C67.8077 30.9093 67.0557 31.096 66.213 31.096ZM66.213 29.752C66.757 29.752 67.2423 29.6293 67.669 29.384C68.1063 29.128 68.4477 28.776 68.693 28.328C68.9383 27.8693 69.061 27.3467 69.061 26.76C69.061 26.1733 68.9383 25.656 68.693 25.208C68.4477 24.7493 68.1063 24.3973 67.669 24.152C67.2423 23.9067 66.757 23.784 66.213 23.784C65.669 23.784 65.1783 23.9067 64.741 24.152C64.3143 24.3973 63.973 24.7493 63.717 25.208C63.4717 25.656 63.349 26.1733 63.349 26.76C63.349 27.3467 63.4717 27.8693 63.717 28.328C63.973 28.776 64.3143 29.128 64.741 29.384C65.1783 29.6293 65.669 29.752 66.213 29.752ZM77.2653 22.44C78.3426 22.44 79.1959 22.7547 79.8253 23.384C80.4653 24.0027 80.7853 24.9147 80.7853 26.12V31H79.2493V26.296C79.2493 25.4747 79.0519 24.856 78.6573 24.44C78.2626 24.024 77.6973 23.816 76.9613 23.816C76.1293 23.816 75.4733 24.0613 74.9933 24.552C74.5133 25.032 74.2733 25.7253 74.2733 26.632V31H72.7373V22.52H74.2093V23.8C74.5186 23.3627 74.9346 23.0267 75.4573 22.792C75.9906 22.5573 76.5933 22.44 77.2653 22.44ZM88.3959 30.504C88.1719 30.696 87.8945 30.8453 87.5639 30.952C87.2332 31.048 86.8919 31.096 86.5399 31.096C85.6865 31.096 85.0252 30.8667 84.5559 30.408C84.0865 29.9493 83.8519 29.2933 83.8519 28.44V23.784H82.4119V22.52H83.8519V20.664H85.3879V22.52H87.8199V23.784H85.3879V28.376C85.3879 28.8347 85.4999 29.1867 85.7239 29.432C85.9585 29.6773 86.2892 29.8 86.7159 29.8C87.1852 29.8 87.5852 29.6667 87.9159 29.4L88.3959 30.504ZM94.7809 22.44C95.8582 22.44 96.7115 22.7547 97.3409 23.384C97.9809 24.0027 98.3009 24.9147 98.3009 26.12V31H96.7649V26.296C96.7649 25.4747 96.5675 24.856 96.1729 24.44C95.7782 24.024 95.2129 23.816 94.4769 23.816C93.6449 23.816 92.9889 24.0613 92.5089 24.552C92.0289 25.032 91.7889 25.7253 91.7889 26.632V31H90.2529V19.128H91.7889V23.72C92.1089 23.3147 92.5249 23 93.0369 22.776C93.5595 22.552 94.1409 22.44 94.7809 22.44Z" fill="white"/>
</g>
<defs>
<filter id="filter0_d" x="-68" y="-44" width="250" height="185" filterUnits="userSpaceOnUse" color-interpolation-filters="sRGB">
<feFlood flood-opacity="0" result="BackgroundImageFix"/>
<feColorMatrix in="SourceAlpha" type="matrix" values="0 0 0 0 0 0 0 0 0 0 0 0 0 0 0 0 0 0 127 0"/>
<feOffset dx="-8" dy="16"/>
<feGaussianBlur stdDeviation="30"/>
<feColorMatrix type="matrix" values="0 0 0 0 0.322856 0 0 0 0 0.446289 0 0 0 0 0.545035 0 0 0 0.24 0"/>
<feBlend mode="normal" in2="BackgroundImageFix" result="effect1_dropShadow"/>
<feBlend mode="normal" in="SourceGraphic" in2="effect1_dropShadow" result="shape"/>
</filter>
<clipPath id="clip0">
<rect width="130" height="65" fill="white"/>
</clipPath>
</defs>
</svg>
