<svg width="1440" height="542" viewBox="0 0 1440 542" fill="none" xmlns="http://www.w3.org/2000/svg">
<path d="M6.92865 72.8486H3.2807V472.66H6.92865V72.8486Z" fill="url(#paint0_linear)"/>
<path d="M0.982544 73.0308C0.982544 70.7691 2.843 68.9087 5.1047 68.9087C7.36641 68.9087 9.22684 70.7691 9.22684 73.0308C9.22684 75.2926 7.36641 77.153 5.1047 77.153C2.843 77.153 0.982544 75.329 0.982544 73.0308Z" fill="url(#paint1_linear)"/>
<path d="M50.5579 112.502H46.91V432.971H50.5579V112.502Z" fill="url(#paint2_linear)"/>
<path d="M44.6482 112.721C44.6482 110.459 46.5086 108.599 48.7704 108.599C51.0321 108.599 52.8925 110.459 52.8925 112.721C52.8925 114.982 51.0321 116.843 48.7704 116.843C46.4722 116.806 44.6482 114.982 44.6482 112.721Z" fill="url(#paint3_linear)"/>
<path d="M32.5006 113.888H28.8527V431.584H32.5006V113.888Z" fill="url(#paint4_linear)"/>
<path d="M30.6767 118.228C32.9532 118.228 34.7988 116.383 34.7988 114.106C34.7988 111.83 32.9532 109.984 30.6767 109.984C28.4001 109.984 26.5546 111.83 26.5546 114.106C26.5546 116.383 28.4001 118.228 30.6767 118.228Z" fill="url(#paint5_linear)"/>
<path d="M128.368 75.2935H124.72V470.18H128.368V75.2935Z" fill="url(#paint6_linear)"/>
<path d="M122.422 75.512C122.422 73.2503 124.282 71.3899 126.544 71.3899C128.805 71.3899 130.666 73.2503 130.666 75.512C130.666 77.7737 128.805 79.6342 126.544 79.6342C124.245 79.5977 122.422 77.7737 122.422 75.512Z" fill="url(#paint7_linear)"/>
<path d="M140.479 99.5515H136.831V445.884H140.479V99.5515Z" fill="url(#paint8_linear)"/>
<path d="M134.569 99.7703C134.569 97.5086 136.43 95.6482 138.691 95.6482C140.953 95.6482 142.813 97.5086 142.813 99.7703C142.813 102.032 140.953 103.892 138.691 103.892C136.393 103.892 134.569 102.032 134.569 99.7703Z" fill="url(#paint9_linear)"/>
<path d="M88.5323 65.5896H84.8845V479.883H88.5323V65.5896Z" fill="url(#paint10_linear)"/>
<path d="M82.5863 65.8079C82.5863 63.5462 84.4467 61.6858 86.7084 61.6858C88.9702 61.6858 90.8306 63.5462 90.8306 65.8079C90.8306 68.0696 88.9702 69.9301 86.7084 69.9301C84.4467 69.9301 82.5863 68.0696 82.5863 65.8079Z" fill="url(#paint11_linear)"/>
<path d="M200.268 3.93994H196.62V541.569H200.268V3.93994Z" fill="url(#paint12_linear)"/>
<path d="M194.322 4.12215C194.322 1.86044 196.182 0 198.444 0C200.706 0 202.566 1.86044 202.566 4.12215C202.566 6.38386 200.706 8.24429 198.444 8.24429C196.182 8.24429 194.322 6.38386 194.322 4.12215Z" fill="url(#paint13_linear)"/>
<path d="M212.999 34.1084H209.351V511.365H212.999V34.1084Z" fill="url(#paint14_linear)"/>
<path d="M207.053 34.327C207.053 32.0653 208.914 30.2048 211.175 30.2048C213.437 30.2048 215.297 32.0653 215.297 34.327C215.297 36.5887 213.437 38.4491 211.175 38.4491C208.877 38.4126 207.053 36.5887 207.053 34.327Z" fill="url(#paint15_linear)"/>
<path d="M244.59 18.5315H240.942V526.977H244.59V18.5315Z" fill="url(#paint16_linear)"/>
<path d="M238.644 18.7137C238.644 16.452 240.504 14.5916 242.766 14.5916C245.028 14.5916 246.888 16.452 246.888 18.7137C246.888 20.9754 245.028 22.8358 242.766 22.8358C240.468 22.8358 238.644 21.0119 238.644 18.7137Z" fill="url(#paint17_linear)"/>
<path d="M235.215 32.1018H231.567V513.407H235.215V32.1018Z" fill="url(#paint18_linear)"/>
<path d="M229.269 32.284C229.269 30.0223 231.129 28.1619 233.391 28.1619C235.653 28.1619 237.513 30.0223 237.513 32.284C237.513 34.5457 235.653 36.4061 233.391 36.4061C231.129 36.4061 229.269 34.5822 229.269 32.284Z" fill="url(#paint19_linear)"/>
<path d="M217.304 77.3721H213.656V468.136H217.304V77.3721Z" fill="url(#paint20_linear)"/>
<path d="M211.358 77.5543C211.358 75.2926 213.218 73.4321 215.48 73.4321C217.742 73.4321 219.602 75.2926 219.602 77.5543C219.602 79.816 217.742 81.6764 215.48 81.6764C213.182 81.6764 211.358 79.8525 211.358 77.5543Z" fill="url(#paint21_linear)"/>
<path d="M248.968 39.1421H245.32V506.33H248.968V39.1421Z" fill="url(#paint22_linear)"/>
<path d="M247.144 43.4828C249.42 43.4828 251.266 41.6373 251.266 39.3607C251.266 37.0841 249.42 35.2385 247.144 35.2385C244.867 35.2385 243.021 37.0841 243.021 39.3607C243.021 41.6373 244.867 43.4828 247.144 43.4828Z" fill="url(#paint23_linear)"/>
<path d="M257.212 104.731H253.564V440.741H257.212V104.731Z" fill="url(#paint24_linear)"/>
<path d="M251.266 104.95C251.266 102.688 253.126 100.828 255.388 100.828C257.65 100.828 259.51 102.688 259.51 104.95C259.51 107.211 257.65 109.072 255.388 109.072C253.09 109.072 251.266 107.211 251.266 104.95Z" fill="url(#paint25_linear)"/>
<path d="M334.584 63.1094H330.936V482.364H334.584V63.1094Z" fill="url(#paint26_linear)"/>
<path d="M328.638 63.3279C328.638 61.0662 330.498 59.2058 332.76 59.2058C335.022 59.2058 336.882 61.0662 336.882 63.3279C336.882 65.5897 335.022 67.4501 332.76 67.4501C330.498 67.4501 328.638 65.5897 328.638 63.3279Z" fill="url(#paint27_linear)"/>
<path d="M357.858 111.919H354.21V433.555H357.858V111.919Z" fill="url(#paint28_linear)"/>
<path d="M351.912 112.137C351.912 109.876 353.772 108.015 356.034 108.015C358.295 108.015 360.156 109.876 360.156 112.137C360.156 114.399 358.295 116.259 356.034 116.259C353.772 116.223 351.912 114.399 351.912 112.137Z" fill="url(#paint29_linear)"/>
<path d="M388.354 105.279H384.707V440.231H388.354V105.279Z" fill="url(#paint30_linear)"/>
<path d="M386.53 109.584C388.807 109.584 390.653 107.738 390.653 105.461C390.653 103.185 388.807 101.339 386.53 101.339C384.254 101.339 382.408 103.185 382.408 105.461C382.408 107.738 384.254 109.584 386.53 109.584Z" fill="url(#paint31_linear)"/>
<path d="M437.273 50.9617H433.625V494.511H437.273V50.9617Z" fill="url(#paint32_linear)"/>
<path d="M431.327 51.18C431.327 48.9183 433.151 47.0579 435.449 47.0579C437.711 47.0579 439.571 48.9183 439.571 51.18C439.571 53.4417 437.711 55.3021 435.449 55.3021C433.187 55.2656 431.327 53.4417 431.327 51.18Z" fill="url(#paint33_linear)"/>
<path d="M483.383 5.36279H479.735V540.11H483.383V5.36279Z" fill="url(#paint34_linear)"/>
<path d="M481.559 9.70326C483.835 9.70326 485.681 7.85772 485.681 5.58113C485.681 3.30453 483.835 1.45898 481.559 1.45898C479.282 1.45898 477.436 3.30453 477.436 5.58113C477.436 7.85772 479.282 9.70326 481.559 9.70326Z" fill="url(#paint35_linear)"/>
<path d="M494.545 69.1641H490.897V476.308H494.545V69.1641Z" fill="url(#paint36_linear)"/>
<path d="M488.599 69.3829C488.599 67.1212 490.459 65.2607 492.721 65.2607C494.983 65.2607 496.843 67.1212 496.843 69.3829C496.843 71.6446 494.983 73.5051 492.721 73.5051C490.459 73.4686 488.599 71.6446 488.599 69.3829Z" fill="url(#paint37_linear)"/>
<path d="M504.686 36.7346H501.038V508.774H504.686V36.7346Z" fill="url(#paint38_linear)"/>
<path d="M498.777 36.9168C498.777 34.6551 500.637 32.7947 502.899 32.7947C505.161 32.7947 507.021 34.6186 507.021 36.9168C507.021 39.1785 505.161 41.0389 502.899 41.0389C500.601 41.0389 498.777 39.215 498.777 36.9168Z" fill="url(#paint39_linear)"/>
<path d="M511.471 96.4512H507.823V449.058H511.471V96.4512Z" fill="url(#paint40_linear)"/>
<path d="M505.525 96.6334C505.525 94.3717 507.386 92.5112 509.648 92.5112C511.909 92.5112 513.77 94.3717 513.77 96.6334C513.77 98.8951 511.909 100.755 509.648 100.755C507.386 100.755 505.525 98.9315 505.525 96.6334Z" fill="url(#paint41_linear)"/>
<path d="M570.093 11.6741H566.446V533.836H570.093V11.6741Z" fill="url(#paint42_linear)"/>
<path d="M568.269 15.9784C570.546 15.9784 572.392 14.1329 572.392 11.8563C572.392 9.57968 570.546 7.73413 568.269 7.73413C565.993 7.73413 564.147 9.57968 564.147 11.8563C564.147 14.1329 565.993 15.9784 568.269 15.9784Z" fill="url(#paint43_linear)"/>
<path d="M581.912 83.8291H578.265V461.68H581.912V83.8291Z" fill="url(#paint44_linear)"/>
<path d="M575.967 84.0113C575.967 81.7496 577.827 79.8892 580.089 79.8892C582.35 79.8892 584.211 81.7496 584.211 84.0113C584.211 86.273 582.35 88.1334 580.089 88.1334C577.791 88.1334 575.967 86.273 575.967 84.0113Z" fill="url(#paint45_linear)"/>
<path d="M628.132 109.583H624.484V435.926H628.132V109.583Z" fill="url(#paint46_linear)"/>
<path d="M622.186 109.765C622.186 107.504 624.046 105.643 626.308 105.643C628.569 105.643 630.43 107.504 630.43 109.765C630.43 112.027 628.569 113.888 626.308 113.888C624.046 113.888 622.186 112.064 622.186 109.765Z" fill="url(#paint47_linear)"/>
<path d="M583.153 5.39893H579.505V540.073H583.153V5.39893Z" fill="url(#paint48_linear)"/>
<path d="M581.329 9.73964C583.606 9.73964 585.451 7.8941 585.451 5.6175C585.451 3.34091 583.606 1.49536 581.329 1.49536C579.053 1.49536 577.207 3.34091 577.207 5.6175C577.207 7.8941 579.053 9.73964 581.329 9.73964Z" fill="url(#paint49_linear)"/>
<path d="M642.723 59.2056H639.075V486.303H642.723V59.2056Z" fill="url(#paint50_linear)"/>
<path d="M640.899 63.5099C643.176 63.5099 645.022 61.6644 645.022 59.3878C645.022 57.1112 643.176 55.2656 640.899 55.2656C638.623 55.2656 636.777 57.1112 636.777 59.3878C636.777 61.6644 638.623 63.5099 640.899 63.5099Z" fill="url(#paint51_linear)"/>
<path d="M697.916 52.749H694.268V492.76H697.916V52.749Z" fill="url(#paint52_linear)"/>
<path d="M691.97 52.931C691.97 50.6693 693.831 48.8088 696.092 48.8088C698.354 48.8088 700.215 50.6693 700.215 52.931C700.215 55.1927 698.354 57.0531 696.092 57.0531C693.831 57.0531 691.97 55.2292 691.97 52.931Z" fill="url(#paint53_linear)"/>
<path d="M729.033 31.1538H725.385V514.283H729.033V31.1538Z" fill="url(#paint54_linear)"/>
<path d="M723.124 31.3721C723.124 29.1104 724.984 27.25 727.246 27.25C729.507 27.25 731.368 29.1104 731.368 31.3721C731.368 33.6339 729.507 35.4943 727.246 35.4943C724.947 35.4943 723.124 33.6339 723.124 31.3721Z" fill="url(#paint55_linear)"/>
<path d="M658.409 19.2979H654.761V526.139H658.409V19.2979Z" fill="url(#paint56_linear)"/>
<path d="M652.463 19.5162C652.463 17.2545 654.324 15.394 656.585 15.394C658.847 15.394 660.707 17.2545 660.707 19.5162C660.707 21.7779 658.847 23.6383 656.585 23.6383C654.324 23.6383 652.463 21.7779 652.463 19.5162Z" fill="url(#paint57_linear)"/>
<path d="M730.456 111.152H726.807V434.284H730.456V111.152Z" fill="url(#paint58_linear)"/>
<path d="M724.546 111.371C724.546 109.109 726.407 107.249 728.668 107.249C730.93 107.249 732.79 109.109 732.79 111.371C732.79 113.632 730.93 115.493 728.668 115.493C726.37 115.493 724.546 113.632 724.546 111.371Z" fill="url(#paint59_linear)"/>
<path d="M719.585 81.7139H715.937V463.76H719.585V81.7139Z" fill="url(#paint60_linear)"/>
<path d="M713.675 81.9324C713.675 79.6707 715.536 77.8103 717.797 77.8103C720.059 77.8103 721.92 79.6707 721.92 81.9324C721.92 84.1941 720.059 86.0546 717.797 86.0546C715.499 86.0181 713.675 84.1941 713.675 81.9324Z" fill="url(#paint61_linear)"/>
<path d="M793.2 17.7659H789.552V527.671H793.2V17.7659Z" fill="url(#paint62_linear)"/>
<path d="M787.29 17.9844C787.29 15.7227 789.151 13.8623 791.412 13.8623C793.674 13.8623 795.535 15.7227 795.535 17.9844C795.535 20.2462 793.674 22.1066 791.412 22.1066C789.114 22.1066 787.29 20.2462 787.29 17.9844Z" fill="url(#paint63_linear)"/>
<path d="M757.012 115.384H753.365V430.126H757.012V115.384Z" fill="url(#paint64_linear)"/>
<path d="M751.066 115.566C751.066 113.304 752.927 111.444 755.188 111.444C757.45 111.444 759.31 113.304 759.31 115.566C759.31 117.827 757.45 119.688 755.188 119.688C752.927 119.688 751.066 117.864 751.066 115.566Z" fill="url(#paint65_linear)"/>
<path d="M821.617 79.4153H817.969V466.057H821.617V79.4153Z" fill="url(#paint66_linear)"/>
<path d="M815.671 79.6339C815.671 77.3722 817.531 75.5117 819.793 75.5117C822.055 75.5117 823.915 77.3722 823.915 79.6339C823.915 81.8956 822.055 83.756 819.793 83.756C817.531 83.756 815.671 81.8956 815.671 79.6339Z" fill="url(#paint67_linear)"/>
<path d="M828.694 86.3103H825.046V459.2H828.694V86.3103Z" fill="url(#paint68_linear)"/>
<path d="M822.784 86.4925C822.784 84.2308 824.645 82.3704 826.906 82.3704C829.168 82.3704 831.029 84.2308 831.029 86.4925C831.029 88.7542 829.168 90.6146 826.906 90.6146C824.608 90.6146 822.784 88.7907 822.784 86.4925Z" fill="url(#paint69_linear)"/>
<path d="M904.753 35.9324H901.105V509.541H904.753V35.9324Z" fill="url(#paint70_linear)"/>
<path d="M902.929 40.2731C905.206 40.2731 907.051 38.4275 907.051 36.1509C907.051 33.8744 905.206 32.0288 902.929 32.0288C900.653 32.0288 898.807 33.8744 898.807 36.1509C898.807 38.4275 900.653 40.2731 902.929 40.2731Z" fill="url(#paint71_linear)"/>
<path d="M859.227 7.36865H855.579V538.14H859.227V7.36865Z" fill="url(#paint72_linear)"/>
<path d="M853.281 7.55085C853.281 5.28914 855.141 3.42871 857.403 3.42871C859.665 3.42871 861.525 5.28914 861.525 7.55085C861.525 9.81255 859.665 11.673 857.403 11.673C855.141 11.673 853.281 9.84903 853.281 7.55085Z" fill="url(#paint73_linear)"/>
<path d="M901.105 14.7742H897.457V530.698H901.105V14.7742Z" fill="url(#paint74_linear)"/>
<path d="M895.159 14.9928C895.159 12.731 897.019 10.8706 899.281 10.8706C901.543 10.8706 903.403 12.731 903.403 14.9928C903.403 17.2545 901.543 19.1149 899.281 19.1149C897.019 19.1149 895.159 17.2545 895.159 14.9928Z" fill="url(#paint75_linear)"/>
<path d="M1005.4 46.4011H1001.75V499.071H1005.4V46.4011Z" fill="url(#paint76_linear)"/>
<path d="M999.453 46.6199C999.453 44.3582 1001.31 42.4978 1003.57 42.4978C1005.84 42.4978 1007.7 44.3582 1007.7 46.6199C1007.7 48.8816 1005.84 50.7421 1003.57 50.7421C1001.31 50.7056 999.453 48.8816 999.453 46.6199Z" fill="url(#paint77_linear)"/>
<path d="M1000.95 81.6409H997.3V463.833H1000.95V81.6409Z" fill="url(#paint78_linear)"/>
<path d="M995.039 81.8597C995.039 79.598 996.899 77.7375 999.161 77.7375C1001.42 77.7375 1003.28 79.598 1003.28 81.8597C1003.28 84.1214 1001.42 85.9818 999.161 85.9818C996.899 85.9818 995.039 84.1214 995.039 81.8597Z" fill="url(#paint79_linear)"/>
<path d="M1058.15 89.1914H1054.5V456.281H1058.15V89.1914Z" fill="url(#paint80_linear)"/>
<path d="M1052.2 89.41C1052.2 87.1483 1054.03 85.2878 1056.32 85.2878C1058.59 85.2878 1060.45 87.1483 1060.45 89.41C1060.45 91.6717 1058.59 93.5321 1056.32 93.5321C1054.06 93.5321 1052.2 91.6717 1052.2 89.41Z" fill="url(#paint81_linear)"/>
<path d="M1004.45 45.5989H1000.8V499.873H1004.45V45.5989Z" fill="url(#paint82_linear)"/>
<path d="M998.504 45.8175C998.504 43.5558 1000.36 41.6953 1002.63 41.6953C1004.89 41.6953 1006.75 43.5558 1006.75 45.8175C1006.75 48.0792 1004.89 49.9396 1002.63 49.9396C1000.36 49.9396 998.504 48.0792 998.504 45.8175Z" fill="url(#paint83_linear)"/>
<path d="M1025.61 57.054H1021.96V488.383H1025.61V57.054Z" fill="url(#paint84_linear)"/>
<path d="M1019.66 57.2725C1019.66 55.0108 1021.52 53.1504 1023.78 53.1504C1026.05 53.1504 1027.91 54.9744 1027.91 57.2725C1027.91 59.5342 1026.05 61.3947 1023.78 61.3947C1021.49 61.3947 1019.66 59.5342 1019.66 57.2725Z" fill="url(#paint85_linear)"/>
<path d="M1081.71 81.3486H1078.07V464.161H1081.71V81.3486Z" fill="url(#paint86_linear)"/>
<path d="M1075.77 81.5308C1075.77 79.2691 1077.63 77.4087 1079.89 77.4087C1082.15 77.4087 1084.01 79.2691 1084.01 81.5308C1084.01 83.7925 1082.15 85.653 1079.89 85.653C1077.59 85.653 1075.77 83.829 1075.77 81.5308Z" fill="url(#paint87_linear)"/>
<path d="M1061.39 76.5693H1057.75V468.902H1061.39V76.5693Z" fill="url(#paint88_linear)"/>
<path d="M1055.45 76.7882C1055.45 74.5264 1057.31 72.666 1059.57 72.666C1061.83 72.666 1063.69 74.5264 1063.69 76.7882C1063.69 79.0499 1061.83 80.9103 1059.57 80.9103C1057.31 80.8738 1055.45 79.0499 1055.45 76.7882Z" fill="url(#paint89_linear)"/>
<path d="M1085.4 7.77002H1081.75V537.702H1085.4V7.77002Z" fill="url(#paint90_linear)"/>
<path d="M1079.45 7.98884C1079.45 5.72713 1081.31 3.8667 1083.57 3.8667C1085.84 3.8667 1087.7 5.72713 1087.7 7.98884C1087.7 10.2505 1085.84 12.111 1083.57 12.111C1081.31 12.0745 1079.45 10.2505 1079.45 7.98884Z" fill="url(#paint91_linear)"/>
<path d="M1144.86 103.892H1141.21V441.616H1144.86V103.892Z" fill="url(#paint92_linear)"/>
<path d="M1138.91 104.074C1138.91 101.813 1140.77 99.9521 1143.03 99.9521C1145.3 99.9521 1147.16 101.813 1147.16 104.074C1147.16 106.336 1145.3 108.196 1143.03 108.196C1140.74 108.196 1138.91 106.372 1138.91 104.074Z" fill="url(#paint93_linear)"/>
<path d="M1216.72 112.976H1213.07V432.496H1216.72V112.976Z" fill="url(#paint94_linear)"/>
<path d="M1210.81 113.194C1210.81 110.933 1212.67 109.072 1214.93 109.072C1217.2 109.072 1219.06 110.933 1219.06 113.194C1219.06 115.456 1217.2 117.317 1214.93 117.317C1212.64 117.28 1210.81 115.456 1210.81 113.194Z" fill="url(#paint95_linear)"/>
<path d="M1223.84 18.8235H1220.19V526.649H1223.84V18.8235Z" fill="url(#paint96_linear)"/>
<path d="M1217.89 19.0423C1217.89 16.7806 1219.75 14.9202 1222.01 14.9202C1224.27 14.9202 1226.13 16.7806 1226.13 19.0423C1226.13 21.304 1224.27 23.1645 1222.01 23.1645C1219.75 23.1645 1217.89 21.304 1217.89 19.0423Z" fill="url(#paint97_linear)"/>
<path d="M1185.82 99.4053H1182.18V446.03H1185.82V99.4053Z" fill="url(#paint98_linear)"/>
<path d="M1179.88 99.6241C1179.88 97.3624 1181.74 95.502 1184 95.502C1186.26 95.502 1188.12 97.3624 1188.12 99.6241C1188.12 101.886 1186.26 103.746 1184 103.746C1181.7 103.746 1179.88 101.886 1179.88 99.6241Z" fill="url(#paint99_linear)"/>
<path d="M1254.37 34.8748H1250.72V510.599H1254.37V34.8748Z" fill="url(#paint100_linear)"/>
<path d="M1248.46 35.0931C1248.46 32.8314 1250.32 30.9709 1252.58 30.9709C1254.84 30.9709 1256.7 32.7949 1256.7 35.0931C1256.7 37.3548 1254.84 39.2152 1252.58 39.2152C1250.32 39.2152 1248.46 37.3548 1248.46 35.0931Z" fill="url(#paint101_linear)"/>
<path d="M1281.76 14.7742H1278.12V530.698H1281.76V14.7742Z" fill="url(#paint102_linear)"/>
<path d="M1275.82 14.9928C1275.82 12.731 1277.68 10.8706 1279.94 10.8706C1282.2 10.8706 1284.06 12.731 1284.06 14.9928C1284.06 17.2545 1282.2 19.1149 1279.94 19.1149C1277.68 19.1149 1275.82 17.2545 1275.82 14.9928Z" fill="url(#paint103_linear)"/>
<path d="M1271.33 74.3447H1267.68V471.092H1271.33V74.3447Z" fill="url(#paint104_linear)"/>
<path d="M1265.42 74.5633C1265.42 72.3016 1267.28 70.4412 1269.54 70.4412C1271.81 70.4412 1273.67 72.3016 1273.67 74.5633C1273.67 76.825 1271.81 78.6855 1269.54 78.6855C1267.25 78.6855 1265.42 76.825 1265.42 74.5633Z" fill="url(#paint105_linear)"/>
<path d="M1279.47 86.4556H1275.82V459.017H1279.47V86.4556Z" fill="url(#paint106_linear)"/>
<path d="M1273.52 86.6741C1273.52 84.4124 1275.38 82.552 1277.64 82.552C1279.9 82.552 1281.76 84.4124 1281.76 86.6741C1281.76 88.9359 1279.94 90.7963 1277.64 90.7963C1275.34 90.7963 1273.52 88.9359 1273.52 86.6741Z" fill="url(#paint107_linear)"/>
<path d="M1356.44 20.0635H1352.79V525.445H1356.44V20.0635Z" fill="url(#paint108_linear)"/>
<path d="M1350.53 20.2457C1350.53 17.984 1352.39 16.1235 1354.65 16.1235C1356.91 16.1235 1358.77 17.9475 1358.77 20.2457C1358.77 22.5439 1356.91 24.3678 1354.65 24.3678C1352.35 24.3678 1350.53 22.5439 1350.53 20.2457Z" fill="url(#paint109_linear)"/>
<path d="M1365.08 46.876H1361.43V498.597H1365.08V46.876Z" fill="url(#paint110_linear)"/>
<path d="M1359.14 47.0946C1359.14 44.8328 1361 42.9724 1363.26 42.9724C1365.52 42.9724 1367.38 44.8328 1367.38 47.0946C1367.38 49.3563 1365.52 51.2167 1363.26 51.2167C1361 51.2167 1359.14 49.3563 1359.14 47.0946Z" fill="url(#paint111_linear)"/>
<path d="M1385.15 84.3767H1381.5V461.133H1385.15V84.3767Z" fill="url(#paint112_linear)"/>
<path d="M1379.2 84.5589C1379.2 82.2972 1381.02 80.4368 1383.32 80.4368C1385.58 80.4368 1387.44 82.2972 1387.44 84.5589C1387.44 86.8206 1385.58 88.6811 1383.32 88.6811C1381.02 88.6811 1379.2 86.8571 1379.2 84.5589Z" fill="url(#paint113_linear)"/>
<defs>
<linearGradient id="paint0_linear" x1="5.11234" y1="472.691" x2="5.11234" y2="69.0567" gradientUnits="userSpaceOnUse">
<stop stop-color="#0F1145" stop-opacity="0"/>
<stop offset="1" stop-color="white" stop-opacity="0.07"/>
</linearGradient>
<linearGradient id="paint1_linear" x1="5.12202" y1="77.1537" x2="5.12202" y2="68.8305" gradientUnits="userSpaceOnUse">
<stop stop-color="#0F1145" stop-opacity="0"/>
<stop offset="1" stop-color="white" stop-opacity="0.07"/>
</linearGradient>
<linearGradient id="paint2_linear" x1="48.7416" y1="432.996" x2="48.7416" y2="109.462" gradientUnits="userSpaceOnUse">
<stop stop-color="#0F1145" stop-opacity="0"/>
<stop offset="1" stop-color="white" stop-opacity="0.07"/>
</linearGradient>
<linearGradient id="paint3_linear" x1="48.7877" y1="116.844" x2="48.7877" y2="108.52" gradientUnits="userSpaceOnUse">
<stop stop-color="#0F1145" stop-opacity="0"/>
<stop offset="1" stop-color="white" stop-opacity="0.07"/>
</linearGradient>
<linearGradient id="paint4_linear" x1="30.6843" y1="431.609" x2="30.6843" y2="110.875" gradientUnits="userSpaceOnUse">
<stop stop-color="#0F1145" stop-opacity="0"/>
<stop offset="1" stop-color="white" stop-opacity="0.07"/>
</linearGradient>
<linearGradient id="paint5_linear" x1="30.694" y1="118.229" x2="30.694" y2="109.906" gradientUnits="userSpaceOnUse">
<stop stop-color="#0F1145" stop-opacity="0"/>
<stop offset="1" stop-color="white" stop-opacity="0.07"/>
</linearGradient>
<linearGradient id="paint6_linear" x1="126.551" y1="470.211" x2="126.551" y2="71.5482" gradientUnits="userSpaceOnUse">
<stop stop-color="#0F1145" stop-opacity="0"/>
<stop offset="1" stop-color="white" stop-opacity="0.07"/>
</linearGradient>
<linearGradient id="paint7_linear" x1="126.561" y1="79.6348" x2="126.561" y2="71.3117" gradientUnits="userSpaceOnUse">
<stop stop-color="#0F1145" stop-opacity="0"/>
<stop offset="1" stop-color="white" stop-opacity="0.07"/>
</linearGradient>
<linearGradient id="paint8_linear" x1="138.663" y1="445.912" x2="138.663" y2="96.2667" gradientUnits="userSpaceOnUse">
<stop stop-color="#0F1145" stop-opacity="0"/>
<stop offset="1" stop-color="white" stop-opacity="0.07"/>
</linearGradient>
<linearGradient id="paint9_linear" x1="138.709" y1="103.893" x2="138.709" y2="95.57" gradientUnits="userSpaceOnUse">
<stop stop-color="#0F1145" stop-opacity="0"/>
<stop offset="1" stop-color="white" stop-opacity="0.07"/>
</linearGradient>
<linearGradient id="paint10_linear" x1="86.7161" y1="479.916" x2="86.7161" y2="61.6603" gradientUnits="userSpaceOnUse">
<stop stop-color="#0F1145" stop-opacity="0"/>
<stop offset="1" stop-color="white" stop-opacity="0.07"/>
</linearGradient>
<linearGradient id="paint11_linear" x1="86.7258" y1="69.9307" x2="86.7258" y2="61.6076" gradientUnits="userSpaceOnUse">
<stop stop-color="#0F1145" stop-opacity="0"/>
<stop offset="1" stop-color="white" stop-opacity="0.07"/>
</linearGradient>
<linearGradient id="paint12_linear" x1="198.452" y1="541.612" x2="198.452" y2="-1.15917" gradientUnits="userSpaceOnUse">
<stop stop-color="#0F1145" stop-opacity="0"/>
<stop offset="1" stop-color="white" stop-opacity="0.07"/>
</linearGradient>
<linearGradient id="paint13_linear" x1="198.462" y1="8.24495" x2="198.462" y2="-0.0781924" gradientUnits="userSpaceOnUse">
<stop stop-color="#0F1145" stop-opacity="0"/>
<stop offset="1" stop-color="white" stop-opacity="0.07"/>
</linearGradient>
<linearGradient id="paint14_linear" x1="211.183" y1="511.402" x2="211.183" y2="29.5819" gradientUnits="userSpaceOnUse">
<stop stop-color="#0F1145" stop-opacity="0"/>
<stop offset="1" stop-color="white" stop-opacity="0.07"/>
</linearGradient>
<linearGradient id="paint15_linear" x1="211.193" y1="38.4498" x2="211.193" y2="30.1266" gradientUnits="userSpaceOnUse">
<stop stop-color="#0F1145" stop-opacity="0"/>
<stop offset="1" stop-color="white" stop-opacity="0.07"/>
</linearGradient>
<linearGradient id="paint16_linear" x1="242.774" y1="527.018" x2="242.774" y2="13.7092" gradientUnits="userSpaceOnUse">
<stop stop-color="#0F1145" stop-opacity="0"/>
<stop offset="1" stop-color="white" stop-opacity="0.07"/>
</linearGradient>
<linearGradient id="paint17_linear" x1="242.783" y1="22.8365" x2="242.783" y2="14.5134" gradientUnits="userSpaceOnUse">
<stop stop-color="#0F1145" stop-opacity="0"/>
<stop offset="1" stop-color="white" stop-opacity="0.07"/>
</linearGradient>
<linearGradient id="paint18_linear" x1="233.399" y1="513.445" x2="233.399" y2="27.5369" gradientUnits="userSpaceOnUse">
<stop stop-color="#0F1145" stop-opacity="0"/>
<stop offset="1" stop-color="white" stop-opacity="0.07"/>
</linearGradient>
<linearGradient id="paint19_linear" x1="233.408" y1="36.4068" x2="233.408" y2="28.0837" gradientUnits="userSpaceOnUse">
<stop stop-color="#0F1145" stop-opacity="0"/>
<stop offset="1" stop-color="white" stop-opacity="0.07"/>
</linearGradient>
<linearGradient id="paint20_linear" x1="215.487" y1="468.167" x2="215.487" y2="73.6659" gradientUnits="userSpaceOnUse">
<stop stop-color="#0F1145" stop-opacity="0"/>
<stop offset="1" stop-color="white" stop-opacity="0.07"/>
</linearGradient>
<linearGradient id="paint21_linear" x1="215.497" y1="81.6771" x2="215.497" y2="73.3539" gradientUnits="userSpaceOnUse">
<stop stop-color="#0F1145" stop-opacity="0"/>
<stop offset="1" stop-color="white" stop-opacity="0.07"/>
</linearGradient>
<linearGradient id="paint22_linear" x1="247.151" y1="506.367" x2="247.151" y2="34.7111" gradientUnits="userSpaceOnUse">
<stop stop-color="#0F1145" stop-opacity="0"/>
<stop offset="1" stop-color="white" stop-opacity="0.07"/>
</linearGradient>
<linearGradient id="paint23_linear" x1="247.161" y1="43.4835" x2="247.161" y2="35.1603" gradientUnits="userSpaceOnUse">
<stop stop-color="#0F1145" stop-opacity="0"/>
<stop offset="1" stop-color="white" stop-opacity="0.07"/>
</linearGradient>
<linearGradient id="paint24_linear" x1="255.396" y1="440.767" x2="255.396" y2="101.545" gradientUnits="userSpaceOnUse">
<stop stop-color="#0F1145" stop-opacity="0"/>
<stop offset="1" stop-color="white" stop-opacity="0.07"/>
</linearGradient>
<linearGradient id="paint25_linear" x1="255.405" y1="109.073" x2="255.405" y2="100.749" gradientUnits="userSpaceOnUse">
<stop stop-color="#0F1145" stop-opacity="0"/>
<stop offset="1" stop-color="white" stop-opacity="0.07"/>
</linearGradient>
<linearGradient id="paint26_linear" x1="332.768" y1="482.397" x2="332.768" y2="59.133" gradientUnits="userSpaceOnUse">
<stop stop-color="#0F1145" stop-opacity="0"/>
<stop offset="1" stop-color="white" stop-opacity="0.07"/>
</linearGradient>
<linearGradient id="paint27_linear" x1="332.777" y1="67.4507" x2="332.777" y2="59.1276" gradientUnits="userSpaceOnUse">
<stop stop-color="#0F1145" stop-opacity="0"/>
<stop offset="1" stop-color="white" stop-opacity="0.07"/>
</linearGradient>
<linearGradient id="paint28_linear" x1="356.042" y1="433.581" x2="356.042" y2="108.868" gradientUnits="userSpaceOnUse">
<stop stop-color="#0F1145" stop-opacity="0"/>
<stop offset="1" stop-color="white" stop-opacity="0.07"/>
</linearGradient>
<linearGradient id="paint29_linear" x1="356.051" y1="116.26" x2="356.051" y2="107.937" gradientUnits="userSpaceOnUse">
<stop stop-color="#0F1145" stop-opacity="0"/>
<stop offset="1" stop-color="white" stop-opacity="0.07"/>
</linearGradient>
<linearGradient id="paint30_linear" x1="386.538" y1="440.257" x2="386.538" y2="102.102" gradientUnits="userSpaceOnUse">
<stop stop-color="#0F1145" stop-opacity="0"/>
<stop offset="1" stop-color="white" stop-opacity="0.07"/>
</linearGradient>
<linearGradient id="paint31_linear" x1="386.548" y1="109.584" x2="386.548" y2="101.261" gradientUnits="userSpaceOnUse">
<stop stop-color="#0F1145" stop-opacity="0"/>
<stop offset="1" stop-color="white" stop-opacity="0.07"/>
</linearGradient>
<linearGradient id="paint32_linear" x1="435.457" y1="494.546" x2="435.457" y2="46.7549" gradientUnits="userSpaceOnUse">
<stop stop-color="#0F1145" stop-opacity="0"/>
<stop offset="1" stop-color="white" stop-opacity="0.07"/>
</linearGradient>
<linearGradient id="paint33_linear" x1="435.466" y1="55.3028" x2="435.466" y2="46.9797" gradientUnits="userSpaceOnUse">
<stop stop-color="#0F1145" stop-opacity="0"/>
<stop offset="1" stop-color="white" stop-opacity="0.07"/>
</linearGradient>
<linearGradient id="paint34_linear" x1="481.566" y1="540.152" x2="481.566" y2="0.291019" gradientUnits="userSpaceOnUse">
<stop stop-color="#0F1145" stop-opacity="0"/>
<stop offset="1" stop-color="white" stop-opacity="0.07"/>
</linearGradient>
<linearGradient id="paint35_linear" x1="481.576" y1="9.70391" x2="481.576" y2="1.38079" gradientUnits="userSpaceOnUse">
<stop stop-color="#0F1145" stop-opacity="0"/>
<stop offset="1" stop-color="white" stop-opacity="0.07"/>
</linearGradient>
<linearGradient id="paint36_linear" x1="492.729" y1="476.34" x2="492.729" y2="65.3025" gradientUnits="userSpaceOnUse">
<stop stop-color="#0F1145" stop-opacity="0"/>
<stop offset="1" stop-color="white" stop-opacity="0.07"/>
</linearGradient>
<linearGradient id="paint37_linear" x1="492.738" y1="73.5057" x2="492.738" y2="65.1825" gradientUnits="userSpaceOnUse">
<stop stop-color="#0F1145" stop-opacity="0"/>
<stop offset="1" stop-color="white" stop-opacity="0.07"/>
</linearGradient>
<linearGradient id="paint38_linear" x1="502.87" y1="508.812" x2="502.87" y2="32.2576" gradientUnits="userSpaceOnUse">
<stop stop-color="#0F1145" stop-opacity="0"/>
<stop offset="1" stop-color="white" stop-opacity="0.07"/>
</linearGradient>
<linearGradient id="paint39_linear" x1="502.916" y1="41.0396" x2="502.916" y2="32.7165" gradientUnits="userSpaceOnUse">
<stop stop-color="#0F1145" stop-opacity="0"/>
<stop offset="1" stop-color="white" stop-opacity="0.07"/>
</linearGradient>
<linearGradient id="paint40_linear" x1="509.655" y1="449.086" x2="509.655" y2="93.1069" gradientUnits="userSpaceOnUse">
<stop stop-color="#0F1145" stop-opacity="0"/>
<stop offset="1" stop-color="white" stop-opacity="0.07"/>
</linearGradient>
<linearGradient id="paint41_linear" x1="509.665" y1="100.756" x2="509.665" y2="92.433" gradientUnits="userSpaceOnUse">
<stop stop-color="#0F1145" stop-opacity="0"/>
<stop offset="1" stop-color="white" stop-opacity="0.07"/>
</linearGradient>
<linearGradient id="paint42_linear" x1="568.277" y1="533.878" x2="568.277" y2="6.72166" gradientUnits="userSpaceOnUse">
<stop stop-color="#0F1145" stop-opacity="0"/>
<stop offset="1" stop-color="white" stop-opacity="0.07"/>
</linearGradient>
<linearGradient id="paint43_linear" x1="568.287" y1="15.9791" x2="568.287" y2="7.65594" gradientUnits="userSpaceOnUse">
<stop stop-color="#0F1145" stop-opacity="0"/>
<stop offset="1" stop-color="white" stop-opacity="0.07"/>
</linearGradient>
<linearGradient id="paint44_linear" x1="580.096" y1="461.71" x2="580.096" y2="80.2454" gradientUnits="userSpaceOnUse">
<stop stop-color="#0F1145" stop-opacity="0"/>
<stop offset="1" stop-color="white" stop-opacity="0.07"/>
</linearGradient>
<linearGradient id="paint45_linear" x1="580.106" y1="88.1341" x2="580.106" y2="79.811" gradientUnits="userSpaceOnUse">
<stop stop-color="#0F1145" stop-opacity="0"/>
<stop offset="1" stop-color="white" stop-opacity="0.07"/>
</linearGradient>
<linearGradient id="paint46_linear" x1="626.315" y1="435.951" x2="626.315" y2="106.488" gradientUnits="userSpaceOnUse">
<stop stop-color="#0F1145" stop-opacity="0"/>
<stop offset="1" stop-color="white" stop-opacity="0.07"/>
</linearGradient>
<linearGradient id="paint47_linear" x1="626.325" y1="113.888" x2="626.325" y2="105.565" gradientUnits="userSpaceOnUse">
<stop stop-color="#0F1145" stop-opacity="0"/>
<stop offset="1" stop-color="white" stop-opacity="0.07"/>
</linearGradient>
<linearGradient id="paint48_linear" x1="581.337" y1="540.116" x2="581.337" y2="0.327841" gradientUnits="userSpaceOnUse">
<stop stop-color="#0F1145" stop-opacity="0"/>
<stop offset="1" stop-color="white" stop-opacity="0.07"/>
</linearGradient>
<linearGradient id="paint49_linear" x1="581.346" y1="9.74029" x2="581.346" y2="1.41717" gradientUnits="userSpaceOnUse">
<stop stop-color="#0F1145" stop-opacity="0"/>
<stop offset="1" stop-color="white" stop-opacity="0.07"/>
</linearGradient>
<linearGradient id="paint50_linear" x1="640.907" y1="486.337" x2="640.907" y2="55.1548" gradientUnits="userSpaceOnUse">
<stop stop-color="#0F1145" stop-opacity="0"/>
<stop offset="1" stop-color="white" stop-opacity="0.07"/>
</linearGradient>
<linearGradient id="paint51_linear" x1="640.917" y1="63.5106" x2="640.917" y2="55.1874" gradientUnits="userSpaceOnUse">
<stop stop-color="#0F1145" stop-opacity="0"/>
<stop offset="1" stop-color="white" stop-opacity="0.07"/>
</linearGradient>
<linearGradient id="paint52_linear" x1="696.1" y1="492.795" x2="696.1" y2="48.5758" gradientUnits="userSpaceOnUse">
<stop stop-color="#0F1145" stop-opacity="0"/>
<stop offset="1" stop-color="white" stop-opacity="0.07"/>
</linearGradient>
<linearGradient id="paint53_linear" x1="696.11" y1="57.0538" x2="696.11" y2="48.7306" gradientUnits="userSpaceOnUse">
<stop stop-color="#0F1145" stop-opacity="0"/>
<stop offset="1" stop-color="white" stop-opacity="0.07"/>
</linearGradient>
<linearGradient id="paint54_linear" x1="727.217" y1="514.321" x2="727.217" y2="26.5716" gradientUnits="userSpaceOnUse">
<stop stop-color="#0F1145" stop-opacity="0"/>
<stop offset="1" stop-color="white" stop-opacity="0.07"/>
</linearGradient>
<linearGradient id="paint55_linear" x1="727.263" y1="35.4949" x2="727.263" y2="27.1718" gradientUnits="userSpaceOnUse">
<stop stop-color="#0F1145" stop-opacity="0"/>
<stop offset="1" stop-color="white" stop-opacity="0.07"/>
</linearGradient>
<linearGradient id="paint56_linear" x1="656.593" y1="526.179" x2="656.593" y2="14.4908" gradientUnits="userSpaceOnUse">
<stop stop-color="#0F1145" stop-opacity="0"/>
<stop offset="1" stop-color="white" stop-opacity="0.07"/>
</linearGradient>
<linearGradient id="paint57_linear" x1="656.603" y1="23.639" x2="656.603" y2="15.3159" gradientUnits="userSpaceOnUse">
<stop stop-color="#0F1145" stop-opacity="0"/>
<stop offset="1" stop-color="white" stop-opacity="0.07"/>
</linearGradient>
<linearGradient id="paint58_linear" x1="728.639" y1="434.31" x2="728.639" y2="108.087" gradientUnits="userSpaceOnUse">
<stop stop-color="#0F1145" stop-opacity="0"/>
<stop offset="1" stop-color="white" stop-opacity="0.07"/>
</linearGradient>
<linearGradient id="paint59_linear" x1="728.686" y1="115.493" x2="728.686" y2="107.17" gradientUnits="userSpaceOnUse">
<stop stop-color="#0F1145" stop-opacity="0"/>
<stop offset="1" stop-color="white" stop-opacity="0.07"/>
</linearGradient>
<linearGradient id="paint60_linear" x1="717.769" y1="463.79" x2="717.769" y2="78.0904" gradientUnits="userSpaceOnUse">
<stop stop-color="#0F1145" stop-opacity="0"/>
<stop offset="1" stop-color="white" stop-opacity="0.07"/>
</linearGradient>
<linearGradient id="paint61_linear" x1="717.815" y1="86.0552" x2="717.815" y2="77.7321" gradientUnits="userSpaceOnUse">
<stop stop-color="#0F1145" stop-opacity="0"/>
<stop offset="1" stop-color="white" stop-opacity="0.07"/>
</linearGradient>
<linearGradient id="paint62_linear" x1="791.384" y1="527.711" x2="791.384" y2="12.9297" gradientUnits="userSpaceOnUse">
<stop stop-color="#0F1145" stop-opacity="0"/>
<stop offset="1" stop-color="white" stop-opacity="0.07"/>
</linearGradient>
<linearGradient id="paint63_linear" x1="791.43" y1="22.1073" x2="791.43" y2="13.7841" gradientUnits="userSpaceOnUse">
<stop stop-color="#0F1145" stop-opacity="0"/>
<stop offset="1" stop-color="white" stop-opacity="0.07"/>
</linearGradient>
<linearGradient id="paint64_linear" x1="755.196" y1="430.151" x2="755.196" y2="112.399" gradientUnits="userSpaceOnUse">
<stop stop-color="#0F1145" stop-opacity="0"/>
<stop offset="1" stop-color="white" stop-opacity="0.07"/>
</linearGradient>
<linearGradient id="paint65_linear" x1="755.206" y1="119.689" x2="755.206" y2="111.365" gradientUnits="userSpaceOnUse">
<stop stop-color="#0F1145" stop-opacity="0"/>
<stop offset="1" stop-color="white" stop-opacity="0.07"/>
</linearGradient>
<linearGradient id="paint66_linear" x1="819.801" y1="466.088" x2="819.801" y2="75.7482" gradientUnits="userSpaceOnUse">
<stop stop-color="#0F1145" stop-opacity="0"/>
<stop offset="1" stop-color="white" stop-opacity="0.07"/>
</linearGradient>
<linearGradient id="paint67_linear" x1="819.81" y1="83.7567" x2="819.81" y2="75.4335" gradientUnits="userSpaceOnUse">
<stop stop-color="#0F1145" stop-opacity="0"/>
<stop offset="1" stop-color="white" stop-opacity="0.07"/>
</linearGradient>
<linearGradient id="paint68_linear" x1="826.878" y1="459.229" x2="826.878" y2="82.7737" gradientUnits="userSpaceOnUse">
<stop stop-color="#0F1145" stop-opacity="0"/>
<stop offset="1" stop-color="white" stop-opacity="0.07"/>
</linearGradient>
<linearGradient id="paint69_linear" x1="826.924" y1="90.6153" x2="826.924" y2="82.2922" gradientUnits="userSpaceOnUse">
<stop stop-color="#0F1145" stop-opacity="0"/>
<stop offset="1" stop-color="white" stop-opacity="0.07"/>
</linearGradient>
<linearGradient id="paint70_linear" x1="902.937" y1="509.578" x2="902.937" y2="31.4405" gradientUnits="userSpaceOnUse">
<stop stop-color="#0F1145" stop-opacity="0"/>
<stop offset="1" stop-color="white" stop-opacity="0.07"/>
</linearGradient>
<linearGradient id="paint71_linear" x1="902.946" y1="40.2737" x2="902.946" y2="31.9506" gradientUnits="userSpaceOnUse">
<stop stop-color="#0F1145" stop-opacity="0"/>
<stop offset="1" stop-color="white" stop-opacity="0.07"/>
</linearGradient>
<linearGradient id="paint72_linear" x1="857.411" y1="538.182" x2="857.411" y2="2.33459" gradientUnits="userSpaceOnUse">
<stop stop-color="#0F1145" stop-opacity="0"/>
<stop offset="1" stop-color="white" stop-opacity="0.07"/>
</linearGradient>
<linearGradient id="paint73_linear" x1="857.42" y1="11.6736" x2="857.42" y2="3.35052" gradientUnits="userSpaceOnUse">
<stop stop-color="#0F1145" stop-opacity="0"/>
<stop offset="1" stop-color="white" stop-opacity="0.07"/>
</linearGradient>
<linearGradient id="paint74_linear" x1="899.289" y1="530.739" x2="899.289" y2="9.88092" gradientUnits="userSpaceOnUse">
<stop stop-color="#0F1145" stop-opacity="0"/>
<stop offset="1" stop-color="white" stop-opacity="0.07"/>
</linearGradient>
<linearGradient id="paint75_linear" x1="899.298" y1="19.1156" x2="899.298" y2="10.7924" gradientUnits="userSpaceOnUse">
<stop stop-color="#0F1145" stop-opacity="0"/>
<stop offset="1" stop-color="white" stop-opacity="0.07"/>
</linearGradient>
<linearGradient id="paint76_linear" x1="1003.58" y1="499.106" x2="1003.58" y2="42.1078" gradientUnits="userSpaceOnUse">
<stop stop-color="#0F1145" stop-opacity="0"/>
<stop offset="1" stop-color="white" stop-opacity="0.07"/>
</linearGradient>
<linearGradient id="paint77_linear" x1="1003.59" y1="50.7427" x2="1003.59" y2="42.4196" gradientUnits="userSpaceOnUse">
<stop stop-color="#0F1145" stop-opacity="0"/>
<stop offset="1" stop-color="white" stop-opacity="0.07"/>
</linearGradient>
<linearGradient id="paint78_linear" x1="999.132" y1="463.863" x2="999.132" y2="78.016" gradientUnits="userSpaceOnUse">
<stop stop-color="#0F1145" stop-opacity="0"/>
<stop offset="1" stop-color="white" stop-opacity="0.07"/>
</linearGradient>
<linearGradient id="paint79_linear" x1="999.178" y1="85.9825" x2="999.178" y2="77.6594" gradientUnits="userSpaceOnUse">
<stop stop-color="#0F1145" stop-opacity="0"/>
<stop offset="1" stop-color="white" stop-opacity="0.07"/>
</linearGradient>
<linearGradient id="paint80_linear" x1="1056.33" y1="456.31" x2="1056.33" y2="85.7098" gradientUnits="userSpaceOnUse">
<stop stop-color="#0F1145" stop-opacity="0"/>
<stop offset="1" stop-color="white" stop-opacity="0.07"/>
</linearGradient>
<linearGradient id="paint81_linear" x1="1056.34" y1="93.5328" x2="1056.34" y2="85.2096" gradientUnits="userSpaceOnUse">
<stop stop-color="#0F1145" stop-opacity="0"/>
<stop offset="1" stop-color="white" stop-opacity="0.07"/>
</linearGradient>
<linearGradient id="paint82_linear" x1="1002.63" y1="499.909" x2="1002.63" y2="41.2903" gradientUnits="userSpaceOnUse">
<stop stop-color="#0F1145" stop-opacity="0"/>
<stop offset="1" stop-color="white" stop-opacity="0.07"/>
</linearGradient>
<linearGradient id="paint83_linear" x1="1002.64" y1="49.9403" x2="1002.64" y2="41.6171" gradientUnits="userSpaceOnUse">
<stop stop-color="#0F1145" stop-opacity="0"/>
<stop offset="1" stop-color="white" stop-opacity="0.07"/>
</linearGradient>
<linearGradient id="paint84_linear" x1="1023.79" y1="488.417" x2="1023.79" y2="52.963" gradientUnits="userSpaceOnUse">
<stop stop-color="#0F1145" stop-opacity="0"/>
<stop offset="1" stop-color="white" stop-opacity="0.07"/>
</linearGradient>
<linearGradient id="paint85_linear" x1="1023.8" y1="61.3953" x2="1023.8" y2="53.0722" gradientUnits="userSpaceOnUse">
<stop stop-color="#0F1145" stop-opacity="0"/>
<stop offset="1" stop-color="white" stop-opacity="0.07"/>
</linearGradient>
<linearGradient id="paint86_linear" x1="1079.9" y1="464.191" x2="1079.9" y2="77.7179" gradientUnits="userSpaceOnUse">
<stop stop-color="#0F1145" stop-opacity="0"/>
<stop offset="1" stop-color="white" stop-opacity="0.07"/>
</linearGradient>
<linearGradient id="paint87_linear" x1="1079.91" y1="85.6536" x2="1079.91" y2="77.3305" gradientUnits="userSpaceOnUse">
<stop stop-color="#0F1145" stop-opacity="0"/>
<stop offset="1" stop-color="white" stop-opacity="0.07"/>
</linearGradient>
<linearGradient id="paint88_linear" x1="1059.58" y1="468.933" x2="1059.58" y2="72.8483" gradientUnits="userSpaceOnUse">
<stop stop-color="#0F1145" stop-opacity="0"/>
<stop offset="1" stop-color="white" stop-opacity="0.07"/>
</linearGradient>
<linearGradient id="paint89_linear" x1="1059.59" y1="80.911" x2="1059.59" y2="72.5878" gradientUnits="userSpaceOnUse">
<stop stop-color="#0F1145" stop-opacity="0"/>
<stop offset="1" stop-color="white" stop-opacity="0.07"/>
</linearGradient>
<linearGradient id="paint90_linear" x1="1083.58" y1="537.744" x2="1083.58" y2="2.74391" gradientUnits="userSpaceOnUse">
<stop stop-color="#0F1145" stop-opacity="0"/>
<stop offset="1" stop-color="white" stop-opacity="0.07"/>
</linearGradient>
<linearGradient id="paint91_linear" x1="1083.59" y1="12.1116" x2="1083.59" y2="3.78851" gradientUnits="userSpaceOnUse">
<stop stop-color="#0F1145" stop-opacity="0"/>
<stop offset="1" stop-color="white" stop-opacity="0.07"/>
</linearGradient>
<linearGradient id="paint92_linear" x1="1143.04" y1="441.643" x2="1143.04" y2="100.689" gradientUnits="userSpaceOnUse">
<stop stop-color="#0F1145" stop-opacity="0"/>
<stop offset="1" stop-color="white" stop-opacity="0.07"/>
</linearGradient>
<linearGradient id="paint93_linear" x1="1143.05" y1="108.197" x2="1143.05" y2="99.874" gradientUnits="userSpaceOnUse">
<stop stop-color="#0F1145" stop-opacity="0"/>
<stop offset="1" stop-color="white" stop-opacity="0.07"/>
</linearGradient>
<linearGradient id="paint94_linear" x1="1214.91" y1="432.522" x2="1214.91" y2="109.945" gradientUnits="userSpaceOnUse">
<stop stop-color="#0F1145" stop-opacity="0"/>
<stop offset="1" stop-color="white" stop-opacity="0.07"/>
</linearGradient>
<linearGradient id="paint95_linear" x1="1214.95" y1="117.317" x2="1214.95" y2="108.994" gradientUnits="userSpaceOnUse">
<stop stop-color="#0F1145" stop-opacity="0"/>
<stop offset="1" stop-color="white" stop-opacity="0.07"/>
</linearGradient>
<linearGradient id="paint96_linear" x1="1222.02" y1="526.69" x2="1222.02" y2="14.007" gradientUnits="userSpaceOnUse">
<stop stop-color="#0F1145" stop-opacity="0"/>
<stop offset="1" stop-color="white" stop-opacity="0.07"/>
</linearGradient>
<linearGradient id="paint97_linear" x1="1222.03" y1="23.1651" x2="1222.03" y2="14.842" gradientUnits="userSpaceOnUse">
<stop stop-color="#0F1145" stop-opacity="0"/>
<stop offset="1" stop-color="white" stop-opacity="0.07"/>
</linearGradient>
<linearGradient id="paint98_linear" x1="1184.01" y1="446.057" x2="1184.01" y2="96.1177" gradientUnits="userSpaceOnUse">
<stop stop-color="#0F1145" stop-opacity="0"/>
<stop offset="1" stop-color="white" stop-opacity="0.07"/>
</linearGradient>
<linearGradient id="paint99_linear" x1="1184.02" y1="103.747" x2="1184.02" y2="95.4238" gradientUnits="userSpaceOnUse">
<stop stop-color="#0F1145" stop-opacity="0"/>
<stop offset="1" stop-color="white" stop-opacity="0.07"/>
</linearGradient>
<linearGradient id="paint100_linear" x1="1252.55" y1="510.637" x2="1252.55" y2="30.3628" gradientUnits="userSpaceOnUse">
<stop stop-color="#0F1145" stop-opacity="0"/>
<stop offset="1" stop-color="white" stop-opacity="0.07"/>
</linearGradient>
<linearGradient id="paint101_linear" x1="1252.6" y1="39.2159" x2="1252.6" y2="30.8928" gradientUnits="userSpaceOnUse">
<stop stop-color="#0F1145" stop-opacity="0"/>
<stop offset="1" stop-color="white" stop-opacity="0.07"/>
</linearGradient>
<linearGradient id="paint102_linear" x1="1279.95" y1="530.739" x2="1279.95" y2="9.88092" gradientUnits="userSpaceOnUse">
<stop stop-color="#0F1145" stop-opacity="0"/>
<stop offset="1" stop-color="white" stop-opacity="0.07"/>
</linearGradient>
<linearGradient id="paint103_linear" x1="1279.96" y1="19.1156" x2="1279.96" y2="10.7924" gradientUnits="userSpaceOnUse">
<stop stop-color="#0F1145" stop-opacity="0"/>
<stop offset="1" stop-color="white" stop-opacity="0.07"/>
</linearGradient>
<linearGradient id="paint104_linear" x1="1269.52" y1="471.123" x2="1269.52" y2="70.5818" gradientUnits="userSpaceOnUse">
<stop stop-color="#0F1145" stop-opacity="0"/>
<stop offset="1" stop-color="white" stop-opacity="0.07"/>
</linearGradient>
<linearGradient id="paint105_linear" x1="1269.56" y1="78.6861" x2="1269.56" y2="70.363" gradientUnits="userSpaceOnUse">
<stop stop-color="#0F1145" stop-opacity="0"/>
<stop offset="1" stop-color="white" stop-opacity="0.07"/>
</linearGradient>
<linearGradient id="paint106_linear" x1="1277.65" y1="459.046" x2="1277.65" y2="82.922" gradientUnits="userSpaceOnUse">
<stop stop-color="#0F1145" stop-opacity="0"/>
<stop offset="1" stop-color="white" stop-opacity="0.07"/>
</linearGradient>
<linearGradient id="paint107_linear" x1="1277.66" y1="90.7969" x2="1277.66" y2="82.4738" gradientUnits="userSpaceOnUse">
<stop stop-color="#0F1145" stop-opacity="0"/>
<stop offset="1" stop-color="white" stop-opacity="0.07"/>
</linearGradient>
<linearGradient id="paint108_linear" x1="1354.62" y1="525.485" x2="1354.62" y2="15.2702" gradientUnits="userSpaceOnUse">
<stop stop-color="#0F1145" stop-opacity="0"/>
<stop offset="1" stop-color="white" stop-opacity="0.07"/>
</linearGradient>
<linearGradient id="paint109_linear" x1="1354.67" y1="24.3685" x2="1354.67" y2="16.0453" gradientUnits="userSpaceOnUse">
<stop stop-color="#0F1145" stop-opacity="0"/>
<stop offset="1" stop-color="white" stop-opacity="0.07"/>
</linearGradient>
<linearGradient id="paint110_linear" x1="1363.27" y1="498.633" x2="1363.27" y2="42.5917" gradientUnits="userSpaceOnUse">
<stop stop-color="#0F1145" stop-opacity="0"/>
<stop offset="1" stop-color="white" stop-opacity="0.07"/>
</linearGradient>
<linearGradient id="paint111_linear" x1="1363.28" y1="51.2173" x2="1363.28" y2="42.8942" gradientUnits="userSpaceOnUse">
<stop stop-color="#0F1145" stop-opacity="0"/>
<stop offset="1" stop-color="white" stop-opacity="0.07"/>
</linearGradient>
<linearGradient id="paint112_linear" x1="1383.33" y1="461.163" x2="1383.33" y2="80.8034" gradientUnits="userSpaceOnUse">
<stop stop-color="#0F1145" stop-opacity="0"/>
<stop offset="1" stop-color="white" stop-opacity="0.07"/>
</linearGradient>
<linearGradient id="paint113_linear" x1="1383.34" y1="88.6817" x2="1383.34" y2="80.3586" gradientUnits="userSpaceOnUse">
<stop stop-color="#0F1145" stop-opacity="0"/>
<stop offset="1" stop-color="white" stop-opacity="0.07"/>
</linearGradient>
</defs>
</svg>
