<svg width="385" height="567" viewBox="0 0 385 567" fill="none" xmlns="http://www.w3.org/2000/svg">
<path d="M167.513 146.901C167.513 144.677 169.317 142.873 171.541 142.873C173.765 142.873 175.569 144.677 175.569 146.901C175.569 149.125 173.765 150.929 171.541 150.929C169.317 150.929 167.513 149.125 167.513 146.901Z" fill="url(#paint0_linear)"/>
<path d="M172.233 55.5822H170.898V144.553H172.233V55.5822Z" fill="url(#paint1_linear)"/>
<path d="M335.742 137.954C335.742 135.73 337.546 133.926 339.77 133.926C341.994 133.926 343.799 135.73 343.799 137.954C343.799 140.179 341.994 141.983 339.77 141.983C337.546 141.983 335.742 140.179 335.742 137.954Z" fill="url(#paint2_linear)"/>
<path d="M340.438 46.6603H339.103V135.631H340.438V46.6603Z" fill="url(#paint3_linear)"/>
<path d="M224.553 134C224.553 131.776 226.357 129.972 228.581 129.972C230.806 129.972 232.61 131.776 232.61 134C232.61 136.224 230.806 138.029 228.581 138.029C226.357 138.029 224.553 136.224 224.553 134Z" fill="url(#paint4_linear)"/>
<path d="M229.273 87.1916H227.939V131.677H229.273V87.1916Z" fill="url(#paint5_linear)"/>
<path d="M376.495 357.663C376.495 355.439 378.3 353.635 380.524 353.635C382.748 353.635 384.552 355.439 384.552 357.663C384.552 359.888 382.748 361.692 380.524 361.692C378.324 361.692 376.495 359.888 376.495 357.663Z" fill="url(#paint6_linear)"/>
<path d="M381.216 310.83H379.881V355.315H381.216V310.83Z" fill="url(#paint7_linear)"/>
<path d="M89.7866 46.8086C89.7866 44.5843 91.5907 42.7802 93.815 42.7802C96.0393 42.7802 97.8434 44.5843 97.8434 46.8086C97.8434 49.0329 96.0393 50.837 93.815 50.837C91.6155 50.837 89.7866 49.0329 89.7866 46.8086Z" fill="url(#paint8_linear)"/>
<path d="M94.5071 0H93.1725V44.4855H94.5071V0Z" fill="url(#paint9_linear)"/>
<path d="M274.97 60.3026C274.97 58.0783 276.774 56.2742 278.998 56.2742C281.222 56.2742 283.027 58.0783 283.027 60.3026C283.027 62.5269 281.222 64.331 278.998 64.331C276.799 64.3557 274.97 62.5269 274.97 60.3026Z" fill="url(#paint10_linear)"/>
<path d="M279.69 13.494H278.356V57.9795H279.69V13.494Z" fill="url(#paint11_linear)"/>
<path d="M0 193.314C0 191.09 1.80413 189.286 4.02841 189.286C6.25268 189.286 8.05681 191.09 8.05681 193.314C8.05681 195.538 6.25268 197.343 4.02841 197.343C1.80413 197.343 0 195.538 0 193.314Z" fill="url(#paint12_linear)"/>
<path d="M4.69565 101.995H3.36108V190.991H4.69565V101.995Z" fill="url(#paint13_linear)"/>
<path d="M140.698 562.815C140.698 560.591 142.502 558.787 144.726 558.787C146.95 558.787 148.755 560.591 148.755 562.815C148.755 565.04 146.95 566.844 144.726 566.844C142.502 566.869 140.698 565.04 140.698 562.815Z" fill="url(#paint14_linear)"/>
<path d="M145.393 253.468H144.059V560.492H145.393V253.468Z" fill="url(#paint15_linear)"/>
<path d="M311.522 387.024C311.522 384.8 313.326 382.995 315.55 382.995C317.775 382.995 319.579 384.8 319.579 387.024C319.579 389.248 317.775 391.052 315.55 391.052C313.326 391.052 311.522 389.248 311.522 387.024Z" fill="url(#paint16_linear)"/>
<path d="M316.218 77.6766H314.883V384.701H316.218V77.6766Z" fill="url(#paint17_linear)"/>
<path d="M203.002 477.008C203.002 474.784 204.806 472.98 207.03 472.98C209.255 472.98 211.059 474.784 211.059 477.008C211.059 479.232 209.255 481.036 207.03 481.036C204.806 481.061 203.002 479.232 203.002 477.008Z" fill="url(#paint18_linear)"/>
<path d="M207.723 167.686H206.388V474.71H207.723V167.686Z" fill="url(#paint19_linear)"/>
<path d="M288.291 238.862C288.291 236.638 290.095 234.834 292.319 234.834C294.543 234.834 296.347 236.638 296.347 238.862C296.347 241.087 294.543 242.891 292.319 242.891C290.095 242.916 288.291 241.111 288.291 238.862Z" fill="url(#paint20_linear)"/>
<path d="M293.011 66.6788H291.676V236.539H293.011V66.6788Z" fill="url(#paint21_linear)"/>
<path d="M109.014 329.316C109.014 327.092 110.818 325.288 113.043 325.288C115.267 325.288 117.071 327.092 117.071 329.316C117.071 331.54 115.267 333.345 113.043 333.345C110.818 333.345 109.014 331.54 109.014 329.316Z" fill="url(#paint22_linear)"/>
<path d="M113.735 157.133H112.4V326.993H113.735V157.133Z" fill="url(#paint23_linear)"/>
<defs>
<linearGradient id="paint0_linear" x1="171.557" y1="124.226" x2="171.557" y2="54.2065" gradientUnits="userSpaceOnUse">
<stop stop-color="#A4FFFF"/>
<stop offset="1" stop-color="#A4FFFF" stop-opacity="0"/>
</linearGradient>
<linearGradient id="paint1_linear" x1="171.557" y1="124.225" x2="171.557" y2="54.2073" gradientUnits="userSpaceOnUse">
<stop stop-color="#A4FFFF"/>
<stop offset="1" stop-color="#A4FFFF" stop-opacity="0"/>
</linearGradient>
<linearGradient id="paint2_linear" x1="339.771" y1="115.282" x2="339.771" y2="45.2625" gradientUnits="userSpaceOnUse">
<stop stop-color="#A4FFFF"/>
<stop offset="1" stop-color="#A4FFFF" stop-opacity="0"/>
</linearGradient>
<linearGradient id="paint3_linear" x1="339.77" y1="115.281" x2="339.77" y2="45.263" gradientUnits="userSpaceOnUse">
<stop stop-color="#A4FFFF"/>
<stop offset="1" stop-color="#A4FFFF" stop-opacity="0"/>
</linearGradient>
<linearGradient id="paint4_linear" x1="228.593" y1="111.331" x2="228.593" y2="41.3118" gradientUnits="userSpaceOnUse">
<stop stop-color="#A4FFFF"/>
<stop offset="1" stop-color="#A4FFFF" stop-opacity="0"/>
</linearGradient>
<linearGradient id="paint5_linear" x1="228.594" y1="121.507" x2="228.594" y2="86.4979" gradientUnits="userSpaceOnUse">
<stop stop-color="#A4FFFF"/>
<stop offset="1" stop-color="#A4FFFF" stop-opacity="0"/>
</linearGradient>
<linearGradient id="paint6_linear" x1="380.542" y1="334.981" x2="380.542" y2="264.961" gradientUnits="userSpaceOnUse">
<stop stop-color="#A4FFFF"/>
<stop offset="1" stop-color="#A4FFFF" stop-opacity="0"/>
</linearGradient>
<linearGradient id="paint7_linear" x1="380.542" y1="345.157" x2="380.542" y2="310.148" gradientUnits="userSpaceOnUse">
<stop stop-color="#A4FFFF"/>
<stop offset="1" stop-color="#A4FFFF" stop-opacity="0"/>
</linearGradient>
<linearGradient id="paint8_linear" x1="93.8353" y1="24.1391" x2="93.8353" y2="-45.8808" gradientUnits="userSpaceOnUse">
<stop stop-color="#A4FFFF"/>
<stop offset="1" stop-color="#A4FFFF" stop-opacity="0"/>
</linearGradient>
<linearGradient id="paint9_linear" x1="93.8343" y1="34.3154" x2="93.8343" y2="-0.694468" gradientUnits="userSpaceOnUse">
<stop stop-color="#A4FFFF"/>
<stop offset="1" stop-color="#A4FFFF" stop-opacity="0"/>
</linearGradient>
<linearGradient id="paint10_linear" x1="279.018" y1="37.6352" x2="279.018" y2="-32.3847" gradientUnits="userSpaceOnUse">
<stop stop-color="#A4FFFF"/>
<stop offset="1" stop-color="#A4FFFF" stop-opacity="0"/>
</linearGradient>
<linearGradient id="paint11_linear" x1="279.02" y1="47.8103" x2="279.02" y2="12.8042" gradientUnits="userSpaceOnUse">
<stop stop-color="#A4FFFF"/>
<stop offset="1" stop-color="#A4FFFF" stop-opacity="0"/>
</linearGradient>
<linearGradient id="paint12_linear" x1="4.03656" y1="170.631" x2="4.03656" y2="100.611" gradientUnits="userSpaceOnUse">
<stop stop-color="#A4FFFF"/>
<stop offset="1" stop-color="#A4FFFF" stop-opacity="0"/>
</linearGradient>
<linearGradient id="paint13_linear" x1="4.03751" y1="170.631" x2="4.03751" y2="100.612" gradientUnits="userSpaceOnUse">
<stop stop-color="#A4FFFF"/>
<stop offset="1" stop-color="#A4FFFF" stop-opacity="0"/>
</linearGradient>
<linearGradient id="paint14_linear" x1="144.735" y1="523.33" x2="144.735" y2="398.631" gradientUnits="userSpaceOnUse">
<stop stop-color="#A4FFFF"/>
<stop offset="1" stop-color="#A4FFFF" stop-opacity="0"/>
</linearGradient>
<linearGradient id="paint15_linear" x1="144.736" y1="492.128" x2="144.736" y2="262.739" gradientUnits="userSpaceOnUse">
<stop stop-color="#A4FFFF"/>
<stop offset="1" stop-color="#A4FFFF" stop-opacity="0"/>
</linearGradient>
<linearGradient id="paint16_linear" x1="315.548" y1="347.534" x2="315.548" y2="222.835" gradientUnits="userSpaceOnUse">
<stop stop-color="#A4FFFF"/>
<stop offset="1" stop-color="#A4FFFF" stop-opacity="0"/>
</linearGradient>
<linearGradient id="paint17_linear" x1="315.55" y1="316.331" x2="315.55" y2="86.9432" gradientUnits="userSpaceOnUse">
<stop stop-color="#A4FFFF"/>
<stop offset="1" stop-color="#A4FFFF" stop-opacity="0"/>
</linearGradient>
<linearGradient id="paint18_linear" x1="207.045" y1="437.523" x2="207.045" y2="312.825" gradientUnits="userSpaceOnUse">
<stop stop-color="#A4FFFF"/>
<stop offset="1" stop-color="#A4FFFF" stop-opacity="0"/>
</linearGradient>
<linearGradient id="paint19_linear" x1="207.046" y1="406.319" x2="207.046" y2="176.932" gradientUnits="userSpaceOnUse">
<stop stop-color="#A4FFFF"/>
<stop offset="1" stop-color="#A4FFFF" stop-opacity="0"/>
</linearGradient>
<linearGradient id="paint20_linear" x1="292.33" y1="199.369" x2="292.33" y2="74.632" gradientUnits="userSpaceOnUse">
<stop stop-color="#A4FFFF"/>
<stop offset="1" stop-color="#A4FFFF" stop-opacity="0"/>
</linearGradient>
<linearGradient id="paint21_linear" x1="292.33" y1="198.724" x2="292.33" y2="71.8085" gradientUnits="userSpaceOnUse">
<stop stop-color="#A4FFFF"/>
<stop offset="1" stop-color="#A4FFFF" stop-opacity="0"/>
</linearGradient>
<linearGradient id="paint22_linear" x1="113.055" y1="289.828" x2="113.055" y2="165.167" gradientUnits="userSpaceOnUse">
<stop stop-color="#A4FFFF"/>
<stop offset="1" stop-color="#A4FFFF" stop-opacity="0"/>
</linearGradient>
<linearGradient id="paint23_linear" x1="113.055" y1="289.159" x2="113.055" y2="162.245" gradientUnits="userSpaceOnUse">
<stop stop-color="#A4FFFF"/>
<stop offset="1" stop-color="#A4FFFF" stop-opacity="0"/>
</linearGradient>
</defs>
</svg>
