<svg width="325" height="506" viewBox="0 0 325 506" fill="none" xmlns="http://www.w3.org/2000/svg">
<g clip-path="url(#clip0)">
<path d="M57.4417 180.581C57.4417 178.357 59.2458 176.552 61.4701 176.552C63.6944 176.552 65.4984 178.357 65.4984 180.581C65.4984 182.805 63.6944 184.609 61.4701 184.609C59.2458 184.609 57.4417 182.805 57.4417 180.581Z" fill="url(#paint0_linear)"/>
<path d="M62.1375 89.262H60.8029V178.258H62.1375V89.262Z" fill="url(#paint1_linear)"/>
<path d="M107.513 85.9009C107.513 83.6767 109.317 81.8725 111.541 81.8725C113.765 81.8725 115.569 83.6767 115.569 85.9009C115.569 88.1252 113.765 89.9293 111.541 89.9293C109.317 89.9293 107.513 88.1252 107.513 85.9009Z" fill="url(#paint2_linear)"/>
<path d="M112.233 -5.41782H110.898V83.5531H112.233V-5.41782Z" fill="url(#paint3_linear)"/>
<path d="M147.747 106.34C147.747 104.115 149.551 102.311 151.776 102.311C154 102.311 155.804 104.115 155.804 106.34C155.804 108.564 154 110.368 151.776 110.368C149.576 110.393 147.747 108.589 147.747 106.34Z" fill="url(#paint4_linear)"/>
<path d="M152.468 15.0455H151.133V104.041H152.468V15.0455Z" fill="url(#paint5_linear)"/>
<path d="M213.388 336.082C213.388 333.858 215.192 332.054 217.416 332.054C219.641 332.054 221.445 333.858 221.445 336.082C221.445 338.307 219.641 340.111 217.416 340.111C215.192 340.111 213.388 338.307 213.388 336.082Z" fill="url(#paint6_linear)"/>
<path d="M218.108 244.764H216.774V333.735H218.108V244.764Z" fill="url(#paint7_linear)"/>
<path d="M164.553 73.0002C164.553 70.7759 166.357 68.9718 168.581 68.9718C170.806 68.9718 172.61 70.7759 172.61 73.0002C172.61 75.2245 170.806 77.0286 168.581 77.0286C166.357 77.0286 164.553 75.2245 164.553 73.0002Z" fill="url(#paint8_linear)"/>
<path d="M169.273 26.1916H167.939V70.6771H169.273V26.1916Z" fill="url(#paint9_linear)"/>
<path d="M316.495 296.663C316.495 294.439 318.3 292.635 320.524 292.635C322.748 292.635 324.552 294.439 324.552 296.663C324.552 298.888 322.748 300.692 320.524 300.692C318.324 300.692 316.495 298.888 316.495 296.663Z" fill="url(#paint10_linear)"/>
<path d="M321.216 249.83H319.881V294.315H321.216V249.83Z" fill="url(#paint11_linear)"/>
<path d="M22.3229 163.825C22.3229 161.6 24.127 159.796 26.3513 159.796C28.5756 159.796 30.3797 161.6 30.3797 163.825C30.3797 166.049 28.5756 167.853 26.3513 167.853C24.127 167.853 22.3229 166.049 22.3229 163.825Z" fill="url(#paint12_linear)"/>
<path d="M27.0432 72.5306H25.7087V161.502H27.0432V72.5306Z" fill="url(#paint13_linear)"/>
<path d="M80.6978 501.815C80.6978 499.591 82.5019 497.787 84.7262 497.787C86.9505 497.787 88.7546 499.591 88.7546 501.815C88.7546 504.04 86.9505 505.844 84.7262 505.844C82.5019 505.869 80.6978 504.04 80.6978 501.815Z" fill="url(#paint14_linear)"/>
<path d="M85.3934 192.468H84.0588V499.492H85.3934V192.468Z" fill="url(#paint15_linear)"/>
<path d="M251.522 326.024C251.522 323.8 253.326 321.995 255.55 321.995C257.775 321.995 259.579 323.8 259.579 326.024C259.579 328.248 257.775 330.052 255.55 330.052C253.326 330.052 251.522 328.248 251.522 326.024Z" fill="url(#paint16_linear)"/>
<path d="M256.218 16.6766H254.883V323.701H256.218V16.6766Z" fill="url(#paint17_linear)"/>
<path d="M143.002 416.008C143.002 413.784 144.806 411.98 147.03 411.98C149.255 411.98 151.059 413.784 151.059 416.008C151.059 418.232 149.255 420.036 147.03 420.036C144.806 420.061 143.002 418.232 143.002 416.008Z" fill="url(#paint18_linear)"/>
<path d="M147.723 106.686H146.388V413.71H147.723V106.686Z" fill="url(#paint19_linear)"/>
<path d="M228.291 177.862C228.291 175.638 230.095 173.834 232.319 173.834C234.543 173.834 236.347 175.638 236.347 177.862C236.347 180.087 234.543 181.891 232.319 181.891C230.095 181.915 228.291 180.111 228.291 177.862Z" fill="url(#paint20_linear)"/>
<path d="M233.011 5.67883H231.676V175.539H233.011V5.67883Z" fill="url(#paint21_linear)"/>
</g>
<defs>
<linearGradient id="paint0_linear" x1="61.4698" y1="157.897" x2="61.4698" y2="87.8563" gradientUnits="userSpaceOnUse">
<stop stop-color="#A4FFFF"/>
<stop offset="1" stop-color="#A4FFFF" stop-opacity="0"/>
</linearGradient>
<linearGradient id="paint1_linear" x1="61.4697" y1="157.905" x2="61.4697" y2="87.8837" gradientUnits="userSpaceOnUse">
<stop stop-color="#A4FFFF"/>
<stop offset="1" stop-color="#A4FFFF" stop-opacity="0"/>
</linearGradient>
<linearGradient id="paint2_linear" x1="111.557" y1="63.2264" x2="111.557" y2="-6.79353" gradientUnits="userSpaceOnUse">
<stop stop-color="#A4FFFF"/>
<stop offset="1" stop-color="#A4FFFF" stop-opacity="0"/>
</linearGradient>
<linearGradient id="paint3_linear" x1="111.557" y1="63.225" x2="111.557" y2="-6.79266" gradientUnits="userSpaceOnUse">
<stop stop-color="#A4FFFF"/>
<stop offset="1" stop-color="#A4FFFF" stop-opacity="0"/>
</linearGradient>
<linearGradient id="paint4_linear" x1="151.795" y1="83.6755" x2="151.795" y2="13.6535" gradientUnits="userSpaceOnUse">
<stop stop-color="#A4FFFF"/>
<stop offset="1" stop-color="#A4FFFF" stop-opacity="0"/>
</linearGradient>
<linearGradient id="paint5_linear" x1="151.795" y1="83.6762" x2="151.795" y2="13.6568" gradientUnits="userSpaceOnUse">
<stop stop-color="#A4FFFF"/>
<stop offset="1" stop-color="#A4FFFF" stop-opacity="0"/>
</linearGradient>
<linearGradient id="paint6_linear" x1="217.431" y1="313.411" x2="217.431" y2="243.41" gradientUnits="userSpaceOnUse">
<stop stop-color="#A4FFFF"/>
<stop offset="1" stop-color="#A4FFFF" stop-opacity="0"/>
</linearGradient>
<linearGradient id="paint7_linear" x1="217.432" y1="313.404" x2="217.432" y2="243.386" gradientUnits="userSpaceOnUse">
<stop stop-color="#A4FFFF"/>
<stop offset="1" stop-color="#A4FFFF" stop-opacity="0"/>
</linearGradient>
<linearGradient id="paint8_linear" x1="168.593" y1="50.3314" x2="168.593" y2="-19.6882" gradientUnits="userSpaceOnUse">
<stop stop-color="#A4FFFF"/>
<stop offset="1" stop-color="#A4FFFF" stop-opacity="0"/>
</linearGradient>
<linearGradient id="paint9_linear" x1="168.594" y1="60.5075" x2="168.594" y2="25.4979" gradientUnits="userSpaceOnUse">
<stop stop-color="#A4FFFF"/>
<stop offset="1" stop-color="#A4FFFF" stop-opacity="0"/>
</linearGradient>
<linearGradient id="paint10_linear" x1="320.542" y1="273.981" x2="320.542" y2="203.961" gradientUnits="userSpaceOnUse">
<stop stop-color="#A4FFFF"/>
<stop offset="1" stop-color="#A4FFFF" stop-opacity="0"/>
</linearGradient>
<linearGradient id="paint11_linear" x1="320.542" y1="284.157" x2="320.542" y2="249.148" gradientUnits="userSpaceOnUse">
<stop stop-color="#A4FFFF"/>
<stop offset="1" stop-color="#A4FFFF" stop-opacity="0"/>
</linearGradient>
<linearGradient id="paint12_linear" x1="26.3644" y1="141.151" x2="26.3644" y2="71.1311" gradientUnits="userSpaceOnUse">
<stop stop-color="#A4FFFF"/>
<stop offset="1" stop-color="#A4FFFF" stop-opacity="0"/>
</linearGradient>
<linearGradient id="paint13_linear" x1="26.3631" y1="141.152" x2="26.3631" y2="71.1343" gradientUnits="userSpaceOnUse">
<stop stop-color="#A4FFFF"/>
<stop offset="1" stop-color="#A4FFFF" stop-opacity="0"/>
</linearGradient>
<linearGradient id="paint14_linear" x1="84.7346" y1="462.33" x2="84.7346" y2="337.631" gradientUnits="userSpaceOnUse">
<stop stop-color="#A4FFFF"/>
<stop offset="1" stop-color="#A4FFFF" stop-opacity="0"/>
</linearGradient>
<linearGradient id="paint15_linear" x1="84.7358" y1="431.128" x2="84.7358" y2="201.739" gradientUnits="userSpaceOnUse">
<stop stop-color="#A4FFFF"/>
<stop offset="1" stop-color="#A4FFFF" stop-opacity="0"/>
</linearGradient>
<linearGradient id="paint16_linear" x1="255.548" y1="286.534" x2="255.548" y2="161.835" gradientUnits="userSpaceOnUse">
<stop stop-color="#A4FFFF"/>
<stop offset="1" stop-color="#A4FFFF" stop-opacity="0"/>
</linearGradient>
<linearGradient id="paint17_linear" x1="255.55" y1="255.331" x2="255.55" y2="25.9432" gradientUnits="userSpaceOnUse">
<stop stop-color="#A4FFFF"/>
<stop offset="1" stop-color="#A4FFFF" stop-opacity="0"/>
</linearGradient>
<linearGradient id="paint18_linear" x1="147.045" y1="376.523" x2="147.045" y2="251.825" gradientUnits="userSpaceOnUse">
<stop stop-color="#A4FFFF"/>
<stop offset="1" stop-color="#A4FFFF" stop-opacity="0"/>
</linearGradient>
<linearGradient id="paint19_linear" x1="147.046" y1="345.319" x2="147.046" y2="115.932" gradientUnits="userSpaceOnUse">
<stop stop-color="#A4FFFF"/>
<stop offset="1" stop-color="#A4FFFF" stop-opacity="0"/>
</linearGradient>
<linearGradient id="paint20_linear" x1="232.33" y1="138.369" x2="232.33" y2="13.6319" gradientUnits="userSpaceOnUse">
<stop stop-color="#A4FFFF"/>
<stop offset="1" stop-color="#A4FFFF" stop-opacity="0"/>
</linearGradient>
<linearGradient id="paint21_linear" x1="232.33" y1="137.724" x2="232.33" y2="10.8085" gradientUnits="userSpaceOnUse">
<stop stop-color="#A4FFFF"/>
<stop offset="1" stop-color="#A4FFFF" stop-opacity="0"/>
</linearGradient>
<clipPath id="clip0">
<rect width="325" height="506" fill="white"/>
</clipPath>
</defs>
</svg>
